<?xml version="1.0" encoding="utf-8"?>
<!-- Generator: Adobe Illustrator 24.2.3, SVG Export Plug-In . SVG Version: 6.00 Build 0)  -->
<svg version="1.1" id="Layer_1" xmlns:svg="http://www.w3.org/2000/svg"
	 xmlns="http://www.w3.org/2000/svg" xmlns:xlink="http://www.w3.org/1999/xlink" x="0px" y="0px" viewBox="0 0 841.9 595.3"
	 style="enable-background:new 0 0 841.9 595.3;" xml:space="preserve">
<style type="text/css">
	.st0{fill-opacity:0;stroke:#000000;stroke-width:0.4252;stroke-linecap:round;stroke-linejoin:round;stroke-miterlimit:10;}
	.st1{fill-opacity:0;stroke:#000000;stroke-width:0.432;stroke-linecap:round;stroke-linejoin:round;stroke-miterlimit:10;}
</style>
<desc>Picture generated by PCBNEW</desc>
<g transform="translate(0 0) scale(1 1)">
</g>
<g>
	<path class="st0" d="M311.5,434.1L77.3,365.5"/>
	<path class="st0" d="M424.8,179.6l-324.7,0"/>
	<path class="st0" d="M100.1,179.6L77.3,365.5"/>
	<path class="st0" d="M749.5,179.6l22.8,185.8"/>
	<path class="st0" d="M749.5,179.6l17.6,143.5"/>
	<path class="st0" d="M424.8,179.6l324.7,0"/>
	<path class="st0" d="M538,434.1l234.3-68.6"/>
	<path class="st0" d="M311.5,434.1l226.5,0"/>
</g>
<g>
	<path class="st1" d="M150.4,250.7l-50.6-6.2"/>
	<path class="st1" d="M99.7,244.4l5.9-47.8"/>
	<path class="st1" d="M105.6,196.6l50.6,6.2"/>
	<path class="st1" d="M156.2,202.8l-5.9,47.8"/>
	<path class="st1" d="M755.6,292.5l5.9,47.8"/>
	<path class="st1" d="M705,298.7l50.6-6.2"/>
	<path class="st1" d="M710.8,346.5l-5.9-47.8"/>
	<path class="st1" d="M761.5,340.3l-50.6,6.2"/>
	<path class="st1" d="M749.7,244.7l5.9,47.8"/>
	<path class="st1" d="M699.1,250.9l50.6-6.2"/>
	<path class="st1" d="M705,298.7l-5.9-47.8"/>
	<path class="st1" d="M755.6,292.5l-50.6,6.2"/>
	<path class="st1" d="M743.9,196.8l5.9,47.8"/>
	<path class="st1" d="M693.2,203l50.6-6.2"/>
	<path class="st1" d="M699.1,250.9l-5.9-47.8"/>
	<path class="st1" d="M749.7,244.7l-50.6,6.2"/>
	<path class="st1" d="M703.5,286.7l5.9,47.8"/>
	<path class="st1" d="M652.9,293l50.6-6.2"/>
	<path class="st1" d="M658.7,340.8l-5.9-47.8"/>
	<path class="st1" d="M709.4,334.6l-50.6,6.2"/>
	<path class="st1" d="M697.6,238.9l5.9,47.8"/>
	<path class="st1" d="M647,245.1l50.6-6.2"/>
	<path class="st1" d="M652.9,293l-5.9-47.8"/>
	<path class="st1" d="M703.5,286.7l-50.6,6.2"/>
	<path class="st1" d="M691.8,191.1l5.9,47.8"/>
	<path class="st1" d="M641.1,197.3l50.6-6.2"/>
	<path class="st1" d="M647,245.1l-5.9-47.8"/>
	<path class="st1" d="M697.6,238.9l-50.6,6.2"/>
	<path class="st1" d="M651.4,281l5.9,47.8"/>
	<path class="st1" d="M600.7,287.2l50.6-6.2"/>
	<path class="st1" d="M606.6,335.1l-5.9-47.8"/>
	<path class="st1" d="M657.3,328.8l-50.6,6.2"/>
	<path class="st1" d="M645.5,233.2l5.9,47.8"/>
	<path class="st1" d="M594.9,239.4l50.6-6.2"/>
	<path class="st1" d="M600.7,287.2l-5.9-47.8"/>
	<path class="st1" d="M651.4,281l-50.6,6.2"/>
	<path class="st1" d="M639.6,185.3l5.9,47.8"/>
	<path class="st1" d="M589,191.6l50.6-6.2"/>
	<path class="st1" d="M594.9,239.4l-5.9-47.8"/>
	<path class="st1" d="M645.5,233.2l-50.6,6.2"/>
	<path class="st1" d="M658.7,340.8l5.9,47.8"/>
	<path class="st1" d="M608.1,347l50.6-6.2"/>
	<path class="st1" d="M614,394.8l-5.9-47.8"/>
	<path class="st1" d="M664.6,388.6l-50.6,6.2"/>
	<path class="st1" d="M602.2,299.2l5.9,47.8"/>
	<path class="st1" d="M551.6,305.4l50.6-6.2"/>
	<path class="st1" d="M557.4,353.2l-5.9-47.8"/>
	<path class="st1" d="M608.1,347l-50.6,6.2"/>
	<path class="st1" d="M596.3,251.4l5.9,47.8"/>
	<path class="st1" d="M545.7,257.6l50.6-6.2"/>
	<path class="st1" d="M551.6,305.4l-5.9-47.8"/>
	<path class="st1" d="M602.2,299.2l-50.6,6.2"/>
	<path class="st1" d="M590.5,203.5l5.9,47.8"/>
	<path class="st1" d="M539.8,209.7l50.6-6.2"/>
	<path class="st1" d="M545.7,257.6l-5.9-47.8"/>
	<path class="st1" d="M596.3,251.4l-50.6,6.2"/>
	<path class="st1" d="M582.8,350.1l5.9,47.8"/>
	<path class="st1" d="M532.1,356.3l50.6-6.2"/>
	<path class="st1" d="M538,404.2l-5.9-47.8"/>
	<path class="st1" d="M588.6,398l-50.6,6.2"/>
	<path class="st1" d="M551.6,305.4l5.9,47.8"/>
	<path class="st1" d="M500.9,311.6l50.6-6.2"/>
	<path class="st1" d="M506.8,359.4l-5.9-47.8"/>
	<path class="st1" d="M557.4,353.2l-50.6,6.2"/>
	<path class="st1" d="M545.7,257.6l5.9,47.8"/>
	<path class="st1" d="M495.1,263.8l50.6-6.2"/>
	<path class="st1" d="M500.9,311.6l-5.9-47.8"/>
	<path class="st1" d="M551.6,305.4l-50.6,6.2"/>
	<path class="st1" d="M539.8,209.7l5.9,47.8"/>
	<path class="st1" d="M489.2,216l50.6-6.2"/>
	<path class="st1" d="M495.1,263.8l-5.9-47.8"/>
	<path class="st1" d="M545.7,257.6l-50.6,6.2"/>
	<path class="st1" d="M311.5,404l-50.6-6.2"/>
	<path class="st1" d="M260.8,397.7l5.9-47.8"/>
	<path class="st1" d="M266.7,349.9l50.6,6.2"/>
	<path class="st1" d="M317.3,356.1l-5.9,47.8"/>
	<path class="st1" d="M342.7,359.2L292,353"/>
	<path class="st1" d="M292,353l5.9-47.8"/>
	<path class="st1" d="M297.9,305.2l50.6,6.2"/>
	<path class="st1" d="M348.5,311.4l-5.9,47.8"/>
	<path class="st1" d="M348.5,311.4l-50.6-6.2"/>
	<path class="st1" d="M297.9,305.2l5.9-47.8"/>
	<path class="st1" d="M303.8,257.4l50.6,6.2"/>
	<path class="st1" d="M354.4,263.6l-5.9,47.8"/>
	<path class="st1" d="M354.4,263.6l-50.6-6.2"/>
	<path class="st1" d="M303.8,257.4l5.9-47.8"/>
	<path class="st1" d="M309.6,209.5l50.6,6.2"/>
	<path class="st1" d="M360.3,215.7l-5.9,47.8"/>
	<path class="st1" d="M235.5,394.6l-50.6-6.2"/>
	<path class="st1" d="M184.9,388.4l5.9-47.8"/>
	<path class="st1" d="M190.7,340.6l50.6,6.2"/>
	<path class="st1" d="M241.4,346.8l-5.9,47.8"/>
	<path class="st1" d="M292,353l-50.6-6.2"/>
	<path class="st1" d="M241.4,346.8l5.9-47.8"/>
	<path class="st1" d="M247.2,299l50.6,6.2"/>
	<path class="st1" d="M297.9,305.2L292,353"/>
	<path class="st1" d="M297.9,305.2l-50.6-6.2"/>
	<path class="st1" d="M247.2,299l5.9-47.8"/>
	<path class="st1" d="M253.1,251.1l50.6,6.2"/>
	<path class="st1" d="M303.8,257.4l-5.9,47.8"/>
	<path class="st1" d="M303.8,257.4l-50.6-6.2"/>
	<path class="st1" d="M253.1,251.1l5.9-47.8"/>
	<path class="st1" d="M259,203.3l50.6,6.2"/>
	<path class="st1" d="M309.6,209.5l-5.9,47.8"/>
	<path class="st1" d="M242.8,334.8l-50.6-6.2"/>
	<path class="st1" d="M192.2,328.6l5.9-47.8"/>
	<path class="st1" d="M198.1,280.8l50.6,6.2"/>
	<path class="st1" d="M248.7,287l-5.9,47.8"/>
	<path class="st1" d="M248.7,287l-50.6-6.2"/>
	<path class="st1" d="M198.1,280.8l5.9-47.8"/>
	<path class="st1" d="M203.9,233l50.6,6.2"/>
	<path class="st1" d="M254.6,239.2l-5.9,47.8"/>
	<path class="st1" d="M254.6,239.2l-50.6-6.2"/>
	<path class="st1" d="M203.9,233l5.9-47.8"/>
	<path class="st1" d="M209.8,185.1l50.6,6.2"/>
	<path class="st1" d="M260.5,191.3l-5.9,47.8"/>
	<path class="st1" d="M190.7,340.6l-50.6-6.2"/>
	<path class="st1" d="M140.1,334.4l5.9-47.8"/>
	<path class="st1" d="M146,286.5l50.6,6.2"/>
	<path class="st1" d="M196.6,292.7l-5.9,47.8"/>
	<path class="st1" d="M196.6,292.7l-50.6-6.2"/>
	<path class="st1" d="M146,286.5l5.9-47.8"/>
	<path class="st1" d="M151.8,238.7l50.6,6.2"/>
	<path class="st1" d="M202.5,244.9l-5.9,47.8"/>
	<path class="st1" d="M202.5,244.9l-50.6-6.2"/>
	<path class="st1" d="M151.8,238.7l5.9-47.8"/>
	<path class="st1" d="M157.7,190.9l50.6,6.2"/>
	<path class="st1" d="M208.3,197.1l-5.9,47.8"/>
	<path class="st1" d="M138.6,346.3L88,340.1"/>
	<path class="st1" d="M88,340.1l5.9-47.8"/>
	<path class="st1" d="M93.9,292.3l50.6,6.2"/>
	<path class="st1" d="M144.5,298.5l-5.9,47.8"/>
	<path class="st1" d="M144.5,298.5l-50.6-6.2"/>
	<path class="st1" d="M93.9,292.3l5.9-47.8"/>
	<path class="st1" d="M99.7,244.4l50.6,6.2"/>
	<path class="st1" d="M150.4,250.7l-5.9,47.8"/>
</g>
</svg>
