%TF.GenerationSoftware,KiCad,Pcbnew,(5.1.10-1-10_14)*%
%TF.CreationDate,2021-09-26T20:25:07-05:00*%
%TF.ProjectId,LeChiffreBLE_Single_Side,4c654368-6966-4667-9265-424c455f5369,rev?*%
%TF.SameCoordinates,Original*%
%TF.FileFunction,Other,Fab,Top*%
%FSLAX46Y46*%
G04 Gerber Fmt 4.6, Leading zero omitted, Abs format (unit mm)*
G04 Created by KiCad (PCBNEW (5.1.10-1-10_14)) date 2021-09-26 20:25:07*
%MOMM*%
%LPD*%
G01*
G04 APERTURE LIST*
%TA.AperFunction,Profile*%
%ADD10C,0.152000*%
%TD*%
%TA.AperFunction,Profile*%
%ADD11C,0.100000*%
%TD*%
%ADD12C,0.100000*%
%ADD13C,0.120000*%
%ADD14C,0.050000*%
%ADD15C,0.127000*%
%ADD16C,0.152400*%
%ADD17C,0.150000*%
G04 APERTURE END LIST*
D10*
X30724319Y-129889391D02*
X109245812Y-152889284D01*
X190227091Y-152889420D02*
X268787470Y-129887957D01*
X190227090Y-152889421D02*
G75*
G02*
X189043077Y-153059189I-1184013J4043940D01*
G01*
X110430291Y-153059189D02*
G75*
G02*
X109245812Y-152889284I0J4213708D01*
G01*
X110430291Y-153059189D02*
X189043077Y-153059189D01*
X34872010Y-67071010D02*
G75*
G02*
X39054379Y-63370255I4182369J-512953D01*
G01*
X149754177Y-63370255D02*
X39054379Y-63370255D01*
X260454219Y-63370255D02*
X149754177Y-63370255D01*
X260454219Y-63370255D02*
G75*
G02*
X264636555Y-67070738I0J-4213708D01*
G01*
X271785793Y-125330793D02*
X264636555Y-67070738D01*
X271785792Y-125330793D02*
G75*
G02*
X268787470Y-129887957I-4182335J-513225D01*
G01*
X30724319Y-129889391D02*
G75*
G02*
X27726429Y-125332635I1184479J4043803D01*
G01*
X34872010Y-67071010D02*
X27726429Y-125332635D01*
D11*
X151416666Y-84985000D02*
G75*
G03*
X151416666Y-84985000I-1666666J0D01*
G01*
X147250000Y-84985000D02*
X152250000Y-84985000D01*
X149750000Y-82485000D02*
X149750000Y-87485000D01*
D12*
%TO.C,Q1*%
X147300010Y-112440010D02*
X144850010Y-112440010D01*
X147870010Y-112990010D02*
X147870010Y-113840010D01*
X147300010Y-112440010D02*
X147870010Y-112990010D01*
X147870010Y-113840010D02*
X144830010Y-113840010D01*
X144830010Y-112440010D02*
X144830010Y-113840010D01*
D13*
X144770010Y-113900010D02*
X145700010Y-113900010D01*
X147930010Y-113900010D02*
X147000010Y-113900010D01*
X147930010Y-113900010D02*
X147930010Y-111740010D01*
X144770010Y-113900010D02*
X144770010Y-112440010D01*
D12*
%TO.C,Q2*%
X148040010Y-107010010D02*
X149440010Y-107010010D01*
X149440010Y-103970010D02*
X149440010Y-107010010D01*
X148040010Y-104540010D02*
X148590010Y-103970010D01*
X148590010Y-103970010D02*
X149440010Y-103970010D01*
X148040010Y-104540010D02*
X148040010Y-106990010D01*
%TO.C,R5*%
X147950010Y-121087510D02*
X148750010Y-121087510D01*
X148750010Y-121087510D02*
X148750010Y-122687510D01*
X148750010Y-122687510D02*
X147950010Y-122687510D01*
X147950010Y-122687510D02*
X147950010Y-121087510D01*
D13*
X148860010Y-121724731D02*
X148860010Y-122050289D01*
X147840010Y-121724731D02*
X147840010Y-122050289D01*
D12*
%TO.C,R6*%
X145478010Y-121137510D02*
X146278010Y-121137510D01*
X146278010Y-121137510D02*
X146278010Y-122737510D01*
X146278010Y-122737510D02*
X145478010Y-122737510D01*
X145478010Y-122737510D02*
X145478010Y-121137510D01*
D13*
X146388010Y-121774731D02*
X146388010Y-122100289D01*
X145368010Y-121774731D02*
X145368010Y-122100289D01*
%TO.C,SW1*%
X154420010Y-115650010D02*
X153630010Y-115650010D01*
X153630010Y-122550010D02*
X154420010Y-122550010D01*
X152580010Y-120700010D02*
X152580010Y-119000010D01*
X155430010Y-121950010D02*
X155430010Y-116250010D01*
X156720010Y-119200010D02*
X155430010Y-119200010D01*
X156930010Y-120300010D02*
X156930010Y-119400010D01*
X155430010Y-120500010D02*
X156720010Y-120500010D01*
X156720010Y-119200010D02*
X156930010Y-119400010D01*
X156720010Y-120500010D02*
X156930010Y-120300010D01*
D14*
X155800010Y-123500010D02*
X151250010Y-123500010D01*
X155800010Y-120750010D02*
X155800010Y-123500010D01*
X157100010Y-120750010D02*
X155800010Y-120750010D01*
X157100010Y-117450010D02*
X157100010Y-120750010D01*
X155800010Y-117450010D02*
X157100010Y-117450010D01*
X155800010Y-114700010D02*
X155800010Y-117450010D01*
X151250010Y-114700010D02*
X155800010Y-114700010D01*
X151250010Y-123500010D02*
X151250010Y-114700010D01*
D13*
X152580010Y-117700010D02*
X152580010Y-117500010D01*
D12*
X152700010Y-115750010D02*
X152700010Y-122450010D01*
X155300010Y-115750010D02*
X152700010Y-115750010D01*
X155300010Y-122450010D02*
X155300010Y-115750010D01*
X152700010Y-122450010D02*
X155300010Y-122450010D01*
X156600010Y-119200010D02*
X155300010Y-119200010D01*
X156650010Y-119250010D02*
X156600010Y-119200010D01*
X156850010Y-119450010D02*
X156650010Y-119250010D01*
X156850010Y-120300010D02*
X156850010Y-119450010D01*
X156650010Y-120500010D02*
X156850010Y-120300010D01*
X155350010Y-120500010D02*
X156650010Y-120500010D01*
%TO.C,J102*%
X149460010Y-89075010D02*
X149460010Y-89715010D01*
X149460010Y-91615010D02*
X149460010Y-92255010D01*
X149460010Y-94155010D02*
X149460010Y-94795010D01*
X149460010Y-96695010D02*
X149460010Y-97335010D01*
D13*
X148510010Y-89395010D02*
X148510010Y-88125010D01*
X148510010Y-88125010D02*
X149780010Y-88125010D01*
D15*
%TO.C,BT1*%
X139200000Y-133090000D02*
X160300000Y-133090000D01*
X160300000Y-133090000D02*
X160300000Y-148590000D01*
X160300000Y-148590000D02*
X155250000Y-148590000D01*
X144250000Y-148590000D02*
X139200000Y-148590000D01*
X139200000Y-148590000D02*
X139200000Y-133090000D01*
X139200000Y-137620000D02*
X139200000Y-133090000D01*
X139200000Y-133090000D02*
X143750000Y-133090000D01*
X155750000Y-133090000D02*
X160300000Y-133090000D01*
X160300000Y-133090000D02*
X160300000Y-137620000D01*
X139200000Y-143660000D02*
X139200000Y-148590000D01*
X139200000Y-148590000D02*
X144250000Y-148590000D01*
X155250000Y-148590000D02*
X160300000Y-148590000D01*
X160300000Y-148590000D02*
X160300000Y-143660000D01*
D14*
X137950000Y-131440000D02*
X161550000Y-131440000D01*
X161550000Y-131440000D02*
X161550000Y-149740000D01*
X161550000Y-149740000D02*
X137950000Y-149740000D01*
X137950000Y-149740000D02*
X137950000Y-131440000D01*
D15*
X149750000Y-146590000D02*
G75*
G03*
X144250000Y-148590000I70510J-8756402D01*
G01*
X155250000Y-148590000D02*
G75*
G03*
X149750000Y-146590000I-5570510J-6756402D01*
G01*
D14*
%TO.C,J101*%
X155350000Y-127240000D02*
X155350000Y-123640000D01*
X144150000Y-127240000D02*
X155350000Y-127240000D01*
X144150000Y-123640000D02*
X144150000Y-127240000D01*
X155350000Y-123640000D02*
X144150000Y-123640000D01*
D13*
X154880000Y-124110000D02*
X154880000Y-125440000D01*
X153550000Y-124110000D02*
X154880000Y-124110000D01*
X152280000Y-124110000D02*
X152280000Y-126770000D01*
X152280000Y-126770000D02*
X144600000Y-126770000D01*
X152280000Y-124110000D02*
X144600000Y-124110000D01*
X144600000Y-124110000D02*
X144600000Y-126770000D01*
D12*
X154185000Y-124170000D02*
X154820000Y-124805000D01*
X144660000Y-124170000D02*
X154185000Y-124170000D01*
X144660000Y-126710000D02*
X144660000Y-124170000D01*
X154820000Y-126710000D02*
X144660000Y-126710000D01*
X154820000Y-124805000D02*
X154820000Y-126710000D01*
%TO.C,C3*%
X145083010Y-105007010D02*
X145883010Y-105007010D01*
X145883010Y-105007010D02*
X145883010Y-106607010D01*
X145883010Y-106607010D02*
X145083010Y-106607010D01*
X145083010Y-106607010D02*
X145083010Y-105007010D01*
D13*
X145993010Y-105644231D02*
X145993010Y-105969789D01*
X144973010Y-105644231D02*
X144973010Y-105969789D01*
D14*
X144753010Y-104327010D02*
X146213010Y-104327010D01*
X146213010Y-104327010D02*
X146213010Y-107287010D01*
X146213010Y-107287010D02*
X144753010Y-107287010D01*
X144753010Y-107287010D02*
X144753010Y-104327010D01*
D16*
%TO.C,MX1*%
X51157288Y-86583604D02*
X37460151Y-84901807D01*
X37460151Y-84901807D02*
X39141948Y-71204670D01*
X39141948Y-71204670D02*
X52839085Y-72886467D01*
X52839085Y-72886467D02*
X51157288Y-86583604D01*
X53046644Y-88427603D02*
X35180813Y-86233955D01*
X35180813Y-86233955D02*
X37252592Y-69360671D01*
X37252592Y-69360671D02*
X55118423Y-71554319D01*
X55118423Y-71554319D02*
X53046644Y-88427603D01*
X51679694Y-87252253D02*
X36791502Y-85424213D01*
X36791502Y-85424213D02*
X38619542Y-70536021D01*
X38619542Y-70536021D02*
X53507734Y-72364061D01*
X53507734Y-72364061D02*
X51679694Y-87252253D01*
D13*
X55764426Y-70600940D02*
X53442815Y-89508945D01*
X36856421Y-68279329D02*
X34534810Y-87187334D01*
X36856421Y-68279329D02*
X55764426Y-70600940D01*
X34534810Y-87187334D02*
X53442815Y-89508945D01*
%TO.C,U101*%
X143000000Y-86020000D02*
X156500000Y-83370000D01*
X156500000Y-86020000D02*
X143000000Y-83370000D01*
X143000000Y-86020000D02*
X156500000Y-86020000D01*
D17*
X142850000Y-100520000D02*
X142850000Y-101520000D01*
X142850000Y-101520000D02*
X143600000Y-101520000D01*
X155900000Y-101520000D02*
X156650000Y-101520000D01*
X156650000Y-100520000D02*
X156650000Y-101520000D01*
X142850000Y-86020000D02*
X142450000Y-86020000D01*
X156650000Y-83220000D02*
X156650000Y-86020000D01*
X142850000Y-83220000D02*
X156650000Y-83220000D01*
X142850000Y-86020000D02*
X142850000Y-83220000D01*
D13*
X156500000Y-83370000D02*
X156500000Y-101370000D01*
X143000000Y-83370000D02*
X143000000Y-101370000D01*
X143000000Y-101370000D02*
X156500000Y-101370000D01*
X143000000Y-83370000D02*
X156500000Y-83370000D01*
D12*
%TO.C,SW2*%
X150750000Y-78300000D02*
G75*
G03*
X150750000Y-78300000I-1000000J0D01*
G01*
D14*
X145500000Y-81300000D02*
X145500000Y-75300000D01*
X154000000Y-81300000D02*
X145500000Y-81300000D01*
X154000000Y-75300000D02*
X154000000Y-81300000D01*
X145500000Y-75300000D02*
X154000000Y-75300000D01*
D12*
X148550000Y-75700000D02*
X147150000Y-77100000D01*
X150950000Y-75700000D02*
X148550000Y-75700000D01*
X152350000Y-77100000D02*
X150950000Y-75700000D01*
X152350000Y-79500000D02*
X152350000Y-77100000D01*
X150950000Y-80900000D02*
X152350000Y-79500000D01*
X148550000Y-80900000D02*
X150950000Y-80900000D01*
X147150000Y-79500000D02*
X148550000Y-80900000D01*
X147150000Y-77100000D02*
X147150000Y-79500000D01*
D13*
X148500000Y-75550000D02*
X151000000Y-75550000D01*
X147000000Y-77300000D02*
X147000000Y-79300000D01*
X148500000Y-81050000D02*
X151000000Y-81050000D01*
X152500000Y-77300000D02*
X152500000Y-79300000D01*
D12*
X147750000Y-79300000D02*
X147750000Y-77300000D01*
X148750000Y-80300000D02*
X147750000Y-79300000D01*
X150750000Y-80300000D02*
X148750000Y-80300000D01*
X151750000Y-79300000D02*
X150750000Y-80300000D01*
X151750000Y-77300000D02*
X151750000Y-79300000D01*
X150750000Y-76300000D02*
X151750000Y-77300000D01*
X148750000Y-76300000D02*
X150750000Y-76300000D01*
X147750000Y-77300000D02*
X148750000Y-76300000D01*
D13*
X148050000Y-76000000D02*
X148500000Y-75550000D01*
X151450000Y-76000000D02*
X151000000Y-75550000D01*
X151450000Y-80600000D02*
X151000000Y-81050000D01*
X148050000Y-80600000D02*
X148500000Y-81050000D01*
D12*
X152950000Y-79900000D02*
X151950000Y-79900000D01*
X152450000Y-80400000D02*
X152450000Y-79900000D01*
X151450000Y-80400000D02*
X152950000Y-80400000D01*
X148050000Y-80400000D02*
X146550000Y-80400000D01*
X146550000Y-79900000D02*
X147550000Y-79900000D01*
X147050000Y-80400000D02*
X147050000Y-79900000D01*
X146550000Y-76700000D02*
X147550000Y-76700000D01*
X148050000Y-76200000D02*
X146550000Y-76200000D01*
X147050000Y-76200000D02*
X147050000Y-76700000D01*
X152950000Y-76700000D02*
X151950000Y-76700000D01*
X151450000Y-76200000D02*
X152950000Y-76200000D01*
X152450000Y-76200000D02*
X152450000Y-76700000D01*
X146550000Y-76200000D02*
X146550000Y-76700000D01*
X146550000Y-80400000D02*
X146550000Y-79900000D01*
X152950000Y-76200000D02*
X152950000Y-76700000D01*
X152950000Y-80400000D02*
X152950000Y-79900000D01*
%TO.C,R103*%
X150930510Y-104561010D02*
X151755510Y-104561010D01*
X151755510Y-104561010D02*
X151755510Y-106161010D01*
X151755510Y-106161010D02*
X150930510Y-106161010D01*
X150930510Y-106161010D02*
X150930510Y-104561010D01*
D13*
X151865510Y-105123752D02*
X151865510Y-105598268D01*
X150820510Y-105123752D02*
X150820510Y-105598268D01*
D14*
X150613010Y-103881010D02*
X152073010Y-103881010D01*
X152073010Y-103881010D02*
X152073010Y-106841010D01*
X152073010Y-106841010D02*
X150613010Y-106841010D01*
X150613010Y-106841010D02*
X150613010Y-103881010D01*
D12*
%TO.C,R102*%
X146983010Y-117539510D02*
X146983010Y-118364510D01*
X146983010Y-118364510D02*
X145383010Y-118364510D01*
X145383010Y-118364510D02*
X145383010Y-117539510D01*
X145383010Y-117539510D02*
X146983010Y-117539510D01*
D13*
X146420268Y-118474510D02*
X145945752Y-118474510D01*
X146420268Y-117429510D02*
X145945752Y-117429510D01*
D14*
X147663010Y-117222010D02*
X147663010Y-118682010D01*
X147663010Y-118682010D02*
X144703010Y-118682010D01*
X144703010Y-118682010D02*
X144703010Y-117222010D01*
X144703010Y-117222010D02*
X147663010Y-117222010D01*
D12*
%TO.C,R101*%
X145367010Y-116569510D02*
X145367010Y-115744510D01*
X145367010Y-115744510D02*
X146967010Y-115744510D01*
X146967010Y-115744510D02*
X146967010Y-116569510D01*
X146967010Y-116569510D02*
X145367010Y-116569510D01*
D13*
X145929752Y-115634510D02*
X146404268Y-115634510D01*
X145929752Y-116679510D02*
X146404268Y-116679510D01*
D14*
X144687010Y-116887010D02*
X144687010Y-115427010D01*
X144687010Y-115427010D02*
X147647010Y-115427010D01*
X147647010Y-115427010D02*
X147647010Y-116887010D01*
X147647010Y-116887010D02*
X144687010Y-116887010D01*
D13*
%TO.C,D35*%
X152868010Y-110005010D02*
X154868010Y-110005010D01*
D12*
X153868010Y-107505010D02*
X153868010Y-107005010D01*
X154268010Y-107505010D02*
X153868010Y-108105010D01*
X153468010Y-107505010D02*
X154268010Y-107505010D01*
X153868010Y-108105010D02*
X153468010Y-107505010D01*
X153868010Y-108105010D02*
X154418010Y-108105010D01*
X153868010Y-108105010D02*
X153318010Y-108105010D01*
X153868010Y-108505010D02*
X153868010Y-108105010D01*
X154768010Y-109155010D02*
X152968010Y-109155010D01*
X154768010Y-106355010D02*
X154768010Y-109155010D01*
X152968010Y-106355010D02*
X154768010Y-106355010D01*
X152968010Y-109155010D02*
X152968010Y-106355010D01*
D14*
X152718010Y-110105010D02*
X152718010Y-105405010D01*
X152718010Y-105405010D02*
X155018010Y-105405010D01*
X155018010Y-105405010D02*
X155018010Y-110105010D01*
X152718010Y-110105010D02*
X155018010Y-110105010D01*
D13*
X154868010Y-110005010D02*
X154868010Y-106105010D01*
X152868010Y-110005010D02*
X152868010Y-106105010D01*
%TO.C,J1*%
X154450000Y-65260000D02*
X154450000Y-63360000D01*
X154450000Y-69160000D02*
X154450000Y-67160000D01*
X145050000Y-65260000D02*
X145050000Y-63360000D01*
X145050000Y-69160000D02*
X145050000Y-67160000D01*
D14*
X144430000Y-72530000D02*
X144430000Y-63110000D01*
X155070000Y-72530000D02*
X155070000Y-63110000D01*
X155070000Y-63110000D02*
X144430000Y-63110000D01*
X155070000Y-72530000D02*
X144430000Y-72530000D01*
D12*
X145280000Y-70910000D02*
X145280000Y-63610000D01*
X154220000Y-63610000D02*
X145280000Y-63610000D01*
X154220000Y-70910000D02*
X154220000Y-63610000D01*
X154220000Y-70910000D02*
X145280000Y-70910000D01*
D13*
X154450000Y-63360000D02*
X145050000Y-63360000D01*
%TO.C,MX34*%
X250375221Y-123331983D02*
X269283226Y-121010372D01*
X248053610Y-104423978D02*
X266961615Y-102102367D01*
X248053610Y-104423978D02*
X250375221Y-123331983D01*
X266961615Y-102102367D02*
X269283226Y-121010372D01*
D16*
X265198494Y-104359059D02*
X267026534Y-119247251D01*
X250310302Y-106187099D02*
X265198494Y-104359059D01*
X252138342Y-121075291D02*
X250310302Y-106187099D01*
X267026534Y-119247251D02*
X252138342Y-121075291D01*
X266565444Y-103183709D02*
X268637223Y-120056993D01*
X248699613Y-105377357D02*
X266565444Y-103183709D01*
X250771392Y-122250641D02*
X248699613Y-105377357D01*
X268637223Y-120056993D02*
X250771392Y-122250641D01*
X264676088Y-105027708D02*
X266357885Y-118724845D01*
X250978951Y-106709505D02*
X264676088Y-105027708D01*
X252660748Y-120406642D02*
X250978951Y-106709505D01*
X266357885Y-118724845D02*
X252660748Y-120406642D01*
D13*
%TO.C,MX33*%
X248303443Y-106458698D02*
X267211448Y-104137087D01*
X245981832Y-87550693D02*
X264889837Y-85229082D01*
X245981832Y-87550693D02*
X248303443Y-106458698D01*
X264889837Y-85229082D02*
X267211448Y-104137087D01*
D16*
X263126716Y-87485774D02*
X264954756Y-102373966D01*
X248238524Y-89313814D02*
X263126716Y-87485774D01*
X250066564Y-104202006D02*
X248238524Y-89313814D01*
X264954756Y-102373966D02*
X250066564Y-104202006D01*
X264493666Y-86310424D02*
X266565445Y-103183708D01*
X246627835Y-88504072D02*
X264493666Y-86310424D01*
X248699614Y-105377356D02*
X246627835Y-88504072D01*
X266565445Y-103183708D02*
X248699614Y-105377356D01*
X262604310Y-88154423D02*
X264286107Y-101851560D01*
X248907173Y-89836220D02*
X262604310Y-88154423D01*
X250588970Y-103533357D02*
X248907173Y-89836220D01*
X264286107Y-101851560D02*
X250588970Y-103533357D01*
D13*
%TO.C,MX32*%
X246231664Y-89585414D02*
X265139669Y-87263803D01*
X243910053Y-70677409D02*
X262818058Y-68355798D01*
X243910053Y-70677409D02*
X246231664Y-89585414D01*
X262818058Y-68355798D02*
X265139669Y-87263803D01*
D16*
X261054937Y-70612490D02*
X262882977Y-85500682D01*
X246166745Y-72440530D02*
X261054937Y-70612490D01*
X247994785Y-87328722D02*
X246166745Y-72440530D01*
X262882977Y-85500682D02*
X247994785Y-87328722D01*
X262421887Y-69437140D02*
X264493666Y-86310424D01*
X244556056Y-71630788D02*
X262421887Y-69437140D01*
X246627835Y-88504072D02*
X244556056Y-71630788D01*
X264493666Y-86310424D02*
X246627835Y-88504072D01*
X260532531Y-71281139D02*
X262214328Y-84978276D01*
X246835394Y-72962936D02*
X260532531Y-71281139D01*
X248517191Y-86660073D02*
X246835394Y-72962936D01*
X262214328Y-84978276D02*
X248517191Y-86660073D01*
D13*
%TO.C,MX31*%
X231991446Y-121307310D02*
X250899451Y-118985699D01*
X229669835Y-102399305D02*
X248577840Y-100077694D01*
X229669835Y-102399305D02*
X231991446Y-121307310D01*
X248577840Y-100077694D02*
X250899451Y-118985699D01*
D16*
X246814719Y-102334386D02*
X248642759Y-117222578D01*
X231926527Y-104162426D02*
X246814719Y-102334386D01*
X233754567Y-119050618D02*
X231926527Y-104162426D01*
X248642759Y-117222578D02*
X233754567Y-119050618D01*
X248181669Y-101159036D02*
X250253448Y-118032320D01*
X230315838Y-103352684D02*
X248181669Y-101159036D01*
X232387617Y-120225968D02*
X230315838Y-103352684D01*
X250253448Y-118032320D02*
X232387617Y-120225968D01*
X246292313Y-103003035D02*
X247974110Y-116700172D01*
X232595176Y-104684832D02*
X246292313Y-103003035D01*
X234276973Y-118381969D02*
X232595176Y-104684832D01*
X247974110Y-116700172D02*
X234276973Y-118381969D01*
D13*
%TO.C,MX30*%
X229919667Y-104434025D02*
X248827672Y-102112414D01*
X227598056Y-85526020D02*
X246506061Y-83204409D01*
X227598056Y-85526020D02*
X229919667Y-104434025D01*
X246506061Y-83204409D02*
X248827672Y-102112414D01*
D16*
X244742940Y-85461101D02*
X246570980Y-100349293D01*
X229854748Y-87289141D02*
X244742940Y-85461101D01*
X231682788Y-102177333D02*
X229854748Y-87289141D01*
X246570980Y-100349293D02*
X231682788Y-102177333D01*
X246109890Y-84285751D02*
X248181669Y-101159035D01*
X228244059Y-86479399D02*
X246109890Y-84285751D01*
X230315838Y-103352683D02*
X228244059Y-86479399D01*
X248181669Y-101159035D02*
X230315838Y-103352683D01*
X244220534Y-86129750D02*
X245902331Y-99826887D01*
X230523397Y-87811547D02*
X244220534Y-86129750D01*
X232205194Y-101508684D02*
X230523397Y-87811547D01*
X245902331Y-99826887D02*
X232205194Y-101508684D01*
D13*
%TO.C,MX29*%
X227847888Y-87560741D02*
X246755893Y-85239130D01*
X225526277Y-68652736D02*
X244434282Y-66331125D01*
X225526277Y-68652736D02*
X227847888Y-87560741D01*
X244434282Y-66331125D02*
X246755893Y-85239130D01*
D16*
X242671161Y-68587817D02*
X244499201Y-83476009D01*
X227782969Y-70415857D02*
X242671161Y-68587817D01*
X229611009Y-85304049D02*
X227782969Y-70415857D01*
X244499201Y-83476009D02*
X229611009Y-85304049D01*
X244038111Y-67412467D02*
X246109890Y-84285751D01*
X226172280Y-69606115D02*
X244038111Y-67412467D01*
X228244059Y-86479399D02*
X226172280Y-69606115D01*
X246109890Y-84285751D02*
X228244059Y-86479399D01*
X242148755Y-69256466D02*
X243830552Y-82953603D01*
X228451618Y-70938263D02*
X242148755Y-69256466D01*
X230133415Y-84635400D02*
X228451618Y-70938263D01*
X243830552Y-82953603D02*
X230133415Y-84635400D01*
D13*
%TO.C,MX28*%
X213607671Y-119282637D02*
X232515676Y-116961026D01*
X211286060Y-100374632D02*
X230194065Y-98053021D01*
X211286060Y-100374632D02*
X213607671Y-119282637D01*
X230194065Y-98053021D02*
X232515676Y-116961026D01*
D16*
X228430944Y-100309713D02*
X230258984Y-115197905D01*
X213542752Y-102137753D02*
X228430944Y-100309713D01*
X215370792Y-117025945D02*
X213542752Y-102137753D01*
X230258984Y-115197905D02*
X215370792Y-117025945D01*
X229797894Y-99134363D02*
X231869673Y-116007647D01*
X211932063Y-101328011D02*
X229797894Y-99134363D01*
X214003842Y-118201295D02*
X211932063Y-101328011D01*
X231869673Y-116007647D02*
X214003842Y-118201295D01*
X227908538Y-100978362D02*
X229590335Y-114675499D01*
X214211401Y-102660159D02*
X227908538Y-100978362D01*
X215893198Y-116357296D02*
X214211401Y-102660159D01*
X229590335Y-114675499D02*
X215893198Y-116357296D01*
D13*
%TO.C,MX27*%
X211535892Y-102409352D02*
X230443897Y-100087741D01*
X209214281Y-83501347D02*
X228122286Y-81179736D01*
X209214281Y-83501347D02*
X211535892Y-102409352D01*
X228122286Y-81179736D02*
X230443897Y-100087741D01*
D16*
X226359165Y-83436428D02*
X228187205Y-98324620D01*
X211470973Y-85264468D02*
X226359165Y-83436428D01*
X213299013Y-100152660D02*
X211470973Y-85264468D01*
X228187205Y-98324620D02*
X213299013Y-100152660D01*
X227726115Y-82261078D02*
X229797894Y-99134362D01*
X209860284Y-84454726D02*
X227726115Y-82261078D01*
X211932063Y-101328010D02*
X209860284Y-84454726D01*
X229797894Y-99134362D02*
X211932063Y-101328010D01*
X225836759Y-84105077D02*
X227518556Y-97802214D01*
X212139622Y-85786874D02*
X225836759Y-84105077D01*
X213821419Y-99484011D02*
X212139622Y-85786874D01*
X227518556Y-97802214D02*
X213821419Y-99484011D01*
D13*
%TO.C,MX26*%
X209464113Y-85536068D02*
X228372118Y-83214457D01*
X207142502Y-66628063D02*
X226050507Y-64306452D01*
X207142502Y-66628063D02*
X209464113Y-85536068D01*
X226050507Y-64306452D02*
X228372118Y-83214457D01*
D16*
X224287386Y-66563144D02*
X226115426Y-81451336D01*
X209399194Y-68391184D02*
X224287386Y-66563144D01*
X211227234Y-83279376D02*
X209399194Y-68391184D01*
X226115426Y-81451336D02*
X211227234Y-83279376D01*
X225654336Y-65387794D02*
X227726115Y-82261078D01*
X207788505Y-67581442D02*
X225654336Y-65387794D01*
X209860284Y-84454726D02*
X207788505Y-67581442D01*
X227726115Y-82261078D02*
X209860284Y-84454726D01*
X223764980Y-67231793D02*
X225446777Y-80928930D01*
X210067843Y-68913590D02*
X223764980Y-67231793D01*
X211749640Y-82610727D02*
X210067843Y-68913590D01*
X225446777Y-80928930D02*
X211749640Y-82610727D01*
D13*
%TO.C,MX25*%
X216197394Y-140374243D02*
X235105399Y-138052632D01*
X213875783Y-121466238D02*
X232783788Y-119144627D01*
X213875783Y-121466238D02*
X216197394Y-140374243D01*
X232783788Y-119144627D02*
X235105399Y-138052632D01*
D16*
X231020667Y-121401319D02*
X232848707Y-136289511D01*
X216132475Y-123229359D02*
X231020667Y-121401319D01*
X217960515Y-138117551D02*
X216132475Y-123229359D01*
X232848707Y-136289511D02*
X217960515Y-138117551D01*
X232387617Y-120225969D02*
X234459396Y-137099253D01*
X214521786Y-122419617D02*
X232387617Y-120225969D01*
X216593565Y-139292901D02*
X214521786Y-122419617D01*
X234459396Y-137099253D02*
X216593565Y-139292901D01*
X230498261Y-122069968D02*
X232180058Y-135767105D01*
X216801124Y-123751765D02*
X230498261Y-122069968D01*
X218482921Y-137448902D02*
X216801124Y-123751765D01*
X232180058Y-135767105D02*
X218482921Y-137448902D01*
D13*
%TO.C,MX24*%
X196259785Y-125694606D02*
X215167790Y-123372995D01*
X193938174Y-106786601D02*
X212846179Y-104464990D01*
X193938174Y-106786601D02*
X196259785Y-125694606D01*
X212846179Y-104464990D02*
X215167790Y-123372995D01*
D16*
X211083058Y-106721682D02*
X212911098Y-121609874D01*
X196194866Y-108549722D02*
X211083058Y-106721682D01*
X198022906Y-123437914D02*
X196194866Y-108549722D01*
X212911098Y-121609874D02*
X198022906Y-123437914D01*
X212450008Y-105546332D02*
X214521787Y-122419616D01*
X194584177Y-107739980D02*
X212450008Y-105546332D01*
X196655956Y-124613264D02*
X194584177Y-107739980D01*
X214521787Y-122419616D02*
X196655956Y-124613264D01*
X210560652Y-107390331D02*
X212242449Y-121087468D01*
X196863515Y-109072128D02*
X210560652Y-107390331D01*
X198545312Y-122769265D02*
X196863515Y-109072128D01*
X212242449Y-121087468D02*
X198545312Y-122769265D01*
D13*
%TO.C,MX23*%
X194188006Y-108821322D02*
X213096011Y-106499711D01*
X191866395Y-89913317D02*
X210774400Y-87591706D01*
X191866395Y-89913317D02*
X194188006Y-108821322D01*
X210774400Y-87591706D02*
X213096011Y-106499711D01*
D16*
X209011279Y-89848398D02*
X210839319Y-104736590D01*
X194123087Y-91676438D02*
X209011279Y-89848398D01*
X195951127Y-106564630D02*
X194123087Y-91676438D01*
X210839319Y-104736590D02*
X195951127Y-106564630D01*
X210378229Y-88673048D02*
X212450008Y-105546332D01*
X192512398Y-90866696D02*
X210378229Y-88673048D01*
X194584177Y-107739980D02*
X192512398Y-90866696D01*
X212450008Y-105546332D02*
X194584177Y-107739980D01*
X208488873Y-90517047D02*
X210170670Y-104214184D01*
X194791736Y-92198844D02*
X208488873Y-90517047D01*
X196473533Y-105895981D02*
X194791736Y-92198844D01*
X210170670Y-104214184D02*
X196473533Y-105895981D01*
D13*
%TO.C,MX22*%
X192116227Y-91948037D02*
X211024232Y-89626426D01*
X189794616Y-73040032D02*
X208702621Y-70718421D01*
X189794616Y-73040032D02*
X192116227Y-91948037D01*
X208702621Y-70718421D02*
X211024232Y-89626426D01*
D16*
X206939500Y-72975113D02*
X208767540Y-87863305D01*
X192051308Y-74803153D02*
X206939500Y-72975113D01*
X193879348Y-89691345D02*
X192051308Y-74803153D01*
X208767540Y-87863305D02*
X193879348Y-89691345D01*
X208306450Y-71799763D02*
X210378229Y-88673047D01*
X190440619Y-73993411D02*
X208306450Y-71799763D01*
X192512398Y-90866695D02*
X190440619Y-73993411D01*
X210378229Y-88673047D02*
X192512398Y-90866695D01*
X206417094Y-73643762D02*
X208098891Y-87340899D01*
X192719957Y-75325559D02*
X206417094Y-73643762D01*
X194401754Y-89022696D02*
X192719957Y-75325559D01*
X208098891Y-87340899D02*
X194401754Y-89022696D01*
D13*
%TO.C,MX21*%
X189398648Y-143664715D02*
X208306653Y-141343104D01*
X187077037Y-124756710D02*
X205985042Y-122435099D01*
X187077037Y-124756710D02*
X189398648Y-143664715D01*
X205985042Y-122435099D02*
X208306653Y-141343104D01*
D16*
X204221921Y-124691791D02*
X206049961Y-139579983D01*
X189333729Y-126519831D02*
X204221921Y-124691791D01*
X191161769Y-141408023D02*
X189333729Y-126519831D01*
X206049961Y-139579983D02*
X191161769Y-141408023D01*
X205588871Y-123516441D02*
X207660650Y-140389725D01*
X187723040Y-125710089D02*
X205588871Y-123516441D01*
X189794819Y-142583373D02*
X187723040Y-125710089D01*
X207660650Y-140389725D02*
X189794819Y-142583373D01*
X203699515Y-125360440D02*
X205381312Y-139057577D01*
X190002378Y-127042237D02*
X203699515Y-125360440D01*
X191684175Y-140739374D02*
X190002378Y-127042237D01*
X205381312Y-139057577D02*
X191684175Y-140739374D01*
D13*
%TO.C,MX20*%
X178393954Y-127888255D02*
X197301959Y-125566644D01*
X176072343Y-108980250D02*
X194980348Y-106658639D01*
X176072343Y-108980250D02*
X178393954Y-127888255D01*
X194980348Y-106658639D02*
X197301959Y-125566644D01*
D16*
X193217227Y-108915331D02*
X195045267Y-123803523D01*
X178329035Y-110743371D02*
X193217227Y-108915331D01*
X180157075Y-125631563D02*
X178329035Y-110743371D01*
X195045267Y-123803523D02*
X180157075Y-125631563D01*
X194584177Y-107739981D02*
X196655956Y-124613265D01*
X176718346Y-109933629D02*
X194584177Y-107739981D01*
X178790125Y-126806913D02*
X176718346Y-109933629D01*
X196655956Y-124613265D02*
X178790125Y-126806913D01*
X192694821Y-109583980D02*
X194376618Y-123281117D01*
X178997684Y-111265777D02*
X192694821Y-109583980D01*
X180679481Y-124962914D02*
X178997684Y-111265777D01*
X194376618Y-123281117D02*
X180679481Y-124962914D01*
D13*
%TO.C,MX19*%
X176322175Y-111014970D02*
X195230180Y-108693359D01*
X174000564Y-92106965D02*
X192908569Y-89785354D01*
X174000564Y-92106965D02*
X176322175Y-111014970D01*
X192908569Y-89785354D02*
X195230180Y-108693359D01*
D16*
X191145448Y-92042046D02*
X192973488Y-106930238D01*
X176257256Y-93870086D02*
X191145448Y-92042046D01*
X178085296Y-108758278D02*
X176257256Y-93870086D01*
X192973488Y-106930238D02*
X178085296Y-108758278D01*
X192512398Y-90866696D02*
X194584177Y-107739980D01*
X174646567Y-93060344D02*
X192512398Y-90866696D01*
X176718346Y-109933628D02*
X174646567Y-93060344D01*
X194584177Y-107739980D02*
X176718346Y-109933628D01*
X190623042Y-92710695D02*
X192304839Y-106407832D01*
X176925905Y-94392492D02*
X190623042Y-92710695D01*
X178607702Y-108089629D02*
X176925905Y-94392492D01*
X192304839Y-106407832D02*
X178607702Y-108089629D01*
D13*
%TO.C,MX18*%
X174250396Y-94141685D02*
X193158401Y-91820074D01*
X171928785Y-75233680D02*
X190836790Y-72912069D01*
X171928785Y-75233680D02*
X174250396Y-94141685D01*
X190836790Y-72912069D02*
X193158401Y-91820074D01*
D16*
X189073669Y-75168761D02*
X190901709Y-90056953D01*
X174185477Y-76996801D02*
X189073669Y-75168761D01*
X176013517Y-91884993D02*
X174185477Y-76996801D01*
X190901709Y-90056953D02*
X176013517Y-91884993D01*
X190440619Y-73993411D02*
X192512398Y-90866695D01*
X172574788Y-76187059D02*
X190440619Y-73993411D01*
X174646567Y-93060343D02*
X172574788Y-76187059D01*
X192512398Y-90866695D02*
X174646567Y-93060343D01*
X188551263Y-75837410D02*
X190233060Y-89534547D01*
X174854126Y-77519207D02*
X188551263Y-75837410D01*
X176535923Y-91216344D02*
X174854126Y-77519207D01*
X190233060Y-89534547D02*
X176535923Y-91216344D01*
%TO.C,MX17*%
X107990303Y-140662905D02*
X94293166Y-138981108D01*
X94293166Y-138981108D02*
X95974963Y-125283971D01*
X95974963Y-125283971D02*
X109672100Y-126965768D01*
X109672100Y-126965768D02*
X107990303Y-140662905D01*
X109879659Y-142506904D02*
X92013828Y-140313256D01*
X92013828Y-140313256D02*
X94085607Y-123439972D01*
X94085607Y-123439972D02*
X111951438Y-125633620D01*
X111951438Y-125633620D02*
X109879659Y-142506904D01*
X108512709Y-141331554D02*
X93624517Y-139503514D01*
X93624517Y-139503514D02*
X95452557Y-124615322D01*
X95452557Y-124615322D02*
X110340749Y-126443362D01*
X110340749Y-126443362D02*
X108512709Y-141331554D01*
D13*
X112597441Y-124680241D02*
X110275830Y-143588246D01*
X93689436Y-122358630D02*
X91367825Y-141266635D01*
X93689436Y-122358630D02*
X112597441Y-124680241D01*
X91367825Y-141266635D02*
X110275830Y-143588246D01*
D16*
%TO.C,MX16*%
X118994997Y-124886445D02*
X105297860Y-123204648D01*
X105297860Y-123204648D02*
X106979657Y-109507511D01*
X106979657Y-109507511D02*
X120676794Y-111189308D01*
X120676794Y-111189308D02*
X118994997Y-124886445D01*
X120884353Y-126730444D02*
X103018522Y-124536796D01*
X103018522Y-124536796D02*
X105090301Y-107663512D01*
X105090301Y-107663512D02*
X122956132Y-109857160D01*
X122956132Y-109857160D02*
X120884353Y-126730444D01*
X119517403Y-125555094D02*
X104629211Y-123727054D01*
X104629211Y-123727054D02*
X106457251Y-108838862D01*
X106457251Y-108838862D02*
X121345443Y-110666902D01*
X121345443Y-110666902D02*
X119517403Y-125555094D01*
D13*
X123602135Y-108903781D02*
X121280524Y-127811786D01*
X104694130Y-106582170D02*
X102372519Y-125490175D01*
X104694130Y-106582170D02*
X123602135Y-108903781D01*
X102372519Y-125490175D02*
X121280524Y-127811786D01*
D16*
%TO.C,MX15*%
X121066776Y-108013160D02*
X107369639Y-106331363D01*
X107369639Y-106331363D02*
X109051436Y-92634226D01*
X109051436Y-92634226D02*
X122748573Y-94316023D01*
X122748573Y-94316023D02*
X121066776Y-108013160D01*
X122956132Y-109857159D02*
X105090301Y-107663511D01*
X105090301Y-107663511D02*
X107162080Y-90790227D01*
X107162080Y-90790227D02*
X125027911Y-92983875D01*
X125027911Y-92983875D02*
X122956132Y-109857159D01*
X121589182Y-108681809D02*
X106700990Y-106853769D01*
X106700990Y-106853769D02*
X108529030Y-91965577D01*
X108529030Y-91965577D02*
X123417222Y-93793617D01*
X123417222Y-93793617D02*
X121589182Y-108681809D01*
D13*
X125673914Y-92030496D02*
X123352303Y-110938501D01*
X106765909Y-89708885D02*
X104444298Y-108616890D01*
X106765909Y-89708885D02*
X125673914Y-92030496D01*
X104444298Y-108616890D02*
X123352303Y-110938501D01*
D16*
%TO.C,MX14*%
X123138555Y-91139875D02*
X109441418Y-89458078D01*
X109441418Y-89458078D02*
X111123215Y-75760941D01*
X111123215Y-75760941D02*
X124820352Y-77442738D01*
X124820352Y-77442738D02*
X123138555Y-91139875D01*
X125027911Y-92983874D02*
X107162080Y-90790226D01*
X107162080Y-90790226D02*
X109233859Y-73916942D01*
X109233859Y-73916942D02*
X127099690Y-76110590D01*
X127099690Y-76110590D02*
X125027911Y-92983874D01*
X123660961Y-91808524D02*
X108772769Y-89980484D01*
X108772769Y-89980484D02*
X110600809Y-75092292D01*
X110600809Y-75092292D02*
X125489001Y-76920332D01*
X125489001Y-76920332D02*
X123660961Y-91808524D01*
D13*
X127745693Y-75157211D02*
X125424082Y-94065216D01*
X108837688Y-72835600D02*
X106516077Y-91743605D01*
X108837688Y-72835600D02*
X127745693Y-75157211D01*
X106516077Y-91743605D02*
X125424082Y-94065216D01*
D16*
%TO.C,MX13*%
X81191557Y-137372433D02*
X67494420Y-135690636D01*
X67494420Y-135690636D02*
X69176217Y-121993499D01*
X69176217Y-121993499D02*
X82873354Y-123675296D01*
X82873354Y-123675296D02*
X81191557Y-137372433D01*
X83080913Y-139216432D02*
X65215082Y-137022784D01*
X65215082Y-137022784D02*
X67286861Y-120149500D01*
X67286861Y-120149500D02*
X85152692Y-122343148D01*
X85152692Y-122343148D02*
X83080913Y-139216432D01*
X81713963Y-138041082D02*
X66825771Y-136213042D01*
X66825771Y-136213042D02*
X68653811Y-121324850D01*
X68653811Y-121324850D02*
X83542003Y-123152890D01*
X83542003Y-123152890D02*
X81713963Y-138041082D01*
D13*
X85798695Y-121389769D02*
X83477084Y-140297774D01*
X66890690Y-119068158D02*
X64569079Y-137976163D01*
X66890690Y-119068158D02*
X85798695Y-121389769D01*
X64569079Y-137976163D02*
X83477084Y-140297774D01*
D16*
%TO.C,MX12*%
X101129167Y-122692796D02*
X87432030Y-121010999D01*
X87432030Y-121010999D02*
X89113827Y-107313862D01*
X89113827Y-107313862D02*
X102810964Y-108995659D01*
X102810964Y-108995659D02*
X101129167Y-122692796D01*
X103018523Y-124536795D02*
X85152692Y-122343147D01*
X85152692Y-122343147D02*
X87224471Y-105469863D01*
X87224471Y-105469863D02*
X105090302Y-107663511D01*
X105090302Y-107663511D02*
X103018523Y-124536795D01*
X101651573Y-123361445D02*
X86763381Y-121533405D01*
X86763381Y-121533405D02*
X88591421Y-106645213D01*
X88591421Y-106645213D02*
X103479613Y-108473253D01*
X103479613Y-108473253D02*
X101651573Y-123361445D01*
D13*
X105736305Y-106710132D02*
X103414694Y-125618137D01*
X86828300Y-104388521D02*
X84506689Y-123296526D01*
X86828300Y-104388521D02*
X105736305Y-106710132D01*
X84506689Y-123296526D02*
X103414694Y-125618137D01*
D16*
%TO.C,MX11*%
X103200946Y-105819512D02*
X89503809Y-104137715D01*
X89503809Y-104137715D02*
X91185606Y-90440578D01*
X91185606Y-90440578D02*
X104882743Y-92122375D01*
X104882743Y-92122375D02*
X103200946Y-105819512D01*
X105090302Y-107663511D02*
X87224471Y-105469863D01*
X87224471Y-105469863D02*
X89296250Y-88596579D01*
X89296250Y-88596579D02*
X107162081Y-90790227D01*
X107162081Y-90790227D02*
X105090302Y-107663511D01*
X103723352Y-106488161D02*
X88835160Y-104660121D01*
X88835160Y-104660121D02*
X90663200Y-89771929D01*
X90663200Y-89771929D02*
X105551392Y-91599969D01*
X105551392Y-91599969D02*
X103723352Y-106488161D01*
D13*
X107808084Y-89836848D02*
X105486473Y-108744853D01*
X88900079Y-87515237D02*
X86578468Y-106423242D01*
X88900079Y-87515237D02*
X107808084Y-89836848D01*
X86578468Y-106423242D02*
X105486473Y-108744853D01*
D16*
%TO.C,MX10*%
X105272724Y-88946227D02*
X91575587Y-87264430D01*
X91575587Y-87264430D02*
X93257384Y-73567293D01*
X93257384Y-73567293D02*
X106954521Y-75249090D01*
X106954521Y-75249090D02*
X105272724Y-88946227D01*
X107162080Y-90790226D02*
X89296249Y-88596578D01*
X89296249Y-88596578D02*
X91368028Y-71723294D01*
X91368028Y-71723294D02*
X109233859Y-73916942D01*
X109233859Y-73916942D02*
X107162080Y-90790226D01*
X105795130Y-89614876D02*
X90906938Y-87786836D01*
X90906938Y-87786836D02*
X92734978Y-72898644D01*
X92734978Y-72898644D02*
X107623170Y-74726684D01*
X107623170Y-74726684D02*
X105795130Y-89614876D01*
D13*
X109879862Y-72963563D02*
X107558251Y-91871568D01*
X90971857Y-70641952D02*
X88650246Y-89549957D01*
X90971857Y-70641952D02*
X109879862Y-72963563D01*
X88650246Y-89549957D02*
X107558251Y-91871568D01*
D16*
%TO.C,MX9*%
X83781281Y-116280827D02*
X70084144Y-114599030D01*
X70084144Y-114599030D02*
X71765941Y-100901893D01*
X71765941Y-100901893D02*
X85463078Y-102583690D01*
X85463078Y-102583690D02*
X83781281Y-116280827D01*
X85670637Y-118124826D02*
X67804806Y-115931178D01*
X67804806Y-115931178D02*
X69876585Y-99057894D01*
X69876585Y-99057894D02*
X87742416Y-101251542D01*
X87742416Y-101251542D02*
X85670637Y-118124826D01*
X84303687Y-116949476D02*
X69415495Y-115121436D01*
X69415495Y-115121436D02*
X71243535Y-100233244D01*
X71243535Y-100233244D02*
X86131727Y-102061284D01*
X86131727Y-102061284D02*
X84303687Y-116949476D01*
D13*
X88388419Y-100298163D02*
X86066808Y-119206168D01*
X69480414Y-97976552D02*
X67158803Y-116884557D01*
X69480414Y-97976552D02*
X88388419Y-100298163D01*
X67158803Y-116884557D02*
X86066808Y-119206168D01*
D16*
%TO.C,MX8*%
X85853060Y-99407542D02*
X72155923Y-97725745D01*
X72155923Y-97725745D02*
X73837720Y-84028608D01*
X73837720Y-84028608D02*
X87534857Y-85710405D01*
X87534857Y-85710405D02*
X85853060Y-99407542D01*
X87742416Y-101251541D02*
X69876585Y-99057893D01*
X69876585Y-99057893D02*
X71948364Y-82184609D01*
X71948364Y-82184609D02*
X89814195Y-84378257D01*
X89814195Y-84378257D02*
X87742416Y-101251541D01*
X86375466Y-100076191D02*
X71487274Y-98248151D01*
X71487274Y-98248151D02*
X73315314Y-83359959D01*
X73315314Y-83359959D02*
X88203506Y-85187999D01*
X88203506Y-85187999D02*
X86375466Y-100076191D01*
D13*
X90460198Y-83424878D02*
X88138587Y-102332883D01*
X71552193Y-81103267D02*
X69230582Y-100011272D01*
X71552193Y-81103267D02*
X90460198Y-83424878D01*
X69230582Y-100011272D02*
X88138587Y-102332883D01*
D16*
%TO.C,MX7*%
X87924838Y-82534258D02*
X74227701Y-80852461D01*
X74227701Y-80852461D02*
X75909498Y-67155324D01*
X75909498Y-67155324D02*
X89606635Y-68837121D01*
X89606635Y-68837121D02*
X87924838Y-82534258D01*
X89814194Y-84378257D02*
X71948363Y-82184609D01*
X71948363Y-82184609D02*
X74020142Y-65311325D01*
X74020142Y-65311325D02*
X91885973Y-67504973D01*
X91885973Y-67504973D02*
X89814194Y-84378257D01*
X88447244Y-83202907D02*
X73559052Y-81374867D01*
X73559052Y-81374867D02*
X75387092Y-66486675D01*
X75387092Y-66486675D02*
X90275284Y-68314715D01*
X90275284Y-68314715D02*
X88447244Y-83202907D01*
D13*
X92531976Y-66551594D02*
X90210365Y-85459599D01*
X73623971Y-64229983D02*
X71302360Y-83137988D01*
X73623971Y-64229983D02*
X92531976Y-66551594D01*
X71302360Y-83137988D02*
X90210365Y-85459599D01*
D16*
%TO.C,MX6*%
X65397505Y-118305500D02*
X51700368Y-116623703D01*
X51700368Y-116623703D02*
X53382165Y-102926566D01*
X53382165Y-102926566D02*
X67079302Y-104608363D01*
X67079302Y-104608363D02*
X65397505Y-118305500D01*
X67286861Y-120149499D02*
X49421030Y-117955851D01*
X49421030Y-117955851D02*
X51492809Y-101082567D01*
X51492809Y-101082567D02*
X69358640Y-103276215D01*
X69358640Y-103276215D02*
X67286861Y-120149499D01*
X65919911Y-118974149D02*
X51031719Y-117146109D01*
X51031719Y-117146109D02*
X52859759Y-102257917D01*
X52859759Y-102257917D02*
X67747951Y-104085957D01*
X67747951Y-104085957D02*
X65919911Y-118974149D01*
D13*
X70004643Y-102322836D02*
X67683032Y-121230841D01*
X51096638Y-100001225D02*
X48775027Y-118909230D01*
X51096638Y-100001225D02*
X70004643Y-102322836D01*
X48775027Y-118909230D02*
X67683032Y-121230841D01*
D16*
%TO.C,MX5*%
X67469284Y-101432215D02*
X53772147Y-99750418D01*
X53772147Y-99750418D02*
X55453944Y-86053281D01*
X55453944Y-86053281D02*
X69151081Y-87735078D01*
X69151081Y-87735078D02*
X67469284Y-101432215D01*
X69358640Y-103276214D02*
X51492809Y-101082566D01*
X51492809Y-101082566D02*
X53564588Y-84209282D01*
X53564588Y-84209282D02*
X71430419Y-86402930D01*
X71430419Y-86402930D02*
X69358640Y-103276214D01*
X67991690Y-102100864D02*
X53103498Y-100272824D01*
X53103498Y-100272824D02*
X54931538Y-85384632D01*
X54931538Y-85384632D02*
X69819730Y-87212672D01*
X69819730Y-87212672D02*
X67991690Y-102100864D01*
D13*
X72076422Y-85449551D02*
X69754811Y-104357556D01*
X53168417Y-83127940D02*
X50846806Y-102035945D01*
X53168417Y-83127940D02*
X72076422Y-85449551D01*
X50846806Y-102035945D02*
X69754811Y-104357556D01*
D16*
%TO.C,MX4*%
X69541063Y-84558931D02*
X55843926Y-82877134D01*
X55843926Y-82877134D02*
X57525723Y-69179997D01*
X57525723Y-69179997D02*
X71222860Y-70861794D01*
X71222860Y-70861794D02*
X69541063Y-84558931D01*
X71430419Y-86402930D02*
X53564588Y-84209282D01*
X53564588Y-84209282D02*
X55636367Y-67335998D01*
X55636367Y-67335998D02*
X73502198Y-69529646D01*
X73502198Y-69529646D02*
X71430419Y-86402930D01*
X70063469Y-85227580D02*
X55175277Y-83399540D01*
X55175277Y-83399540D02*
X57003317Y-68511348D01*
X57003317Y-68511348D02*
X71891509Y-70339388D01*
X71891509Y-70339388D02*
X70063469Y-85227580D01*
D13*
X74148201Y-68576267D02*
X71826590Y-87484272D01*
X55240196Y-66254656D02*
X52918585Y-85162661D01*
X55240196Y-66254656D02*
X74148201Y-68576267D01*
X52918585Y-85162661D02*
X71826590Y-87484272D01*
D16*
%TO.C,MX3*%
X47013730Y-120330173D02*
X33316593Y-118648376D01*
X33316593Y-118648376D02*
X34998390Y-104951239D01*
X34998390Y-104951239D02*
X48695527Y-106633036D01*
X48695527Y-106633036D02*
X47013730Y-120330173D01*
X48903086Y-122174172D02*
X31037255Y-119980524D01*
X31037255Y-119980524D02*
X33109034Y-103107240D01*
X33109034Y-103107240D02*
X50974865Y-105300888D01*
X50974865Y-105300888D02*
X48903086Y-122174172D01*
X47536136Y-120998822D02*
X32647944Y-119170782D01*
X32647944Y-119170782D02*
X34475984Y-104282590D01*
X34475984Y-104282590D02*
X49364176Y-106110630D01*
X49364176Y-106110630D02*
X47536136Y-120998822D01*
D13*
X51620868Y-104347509D02*
X49299257Y-123255514D01*
X32712863Y-102025898D02*
X30391252Y-120933903D01*
X32712863Y-102025898D02*
X51620868Y-104347509D01*
X30391252Y-120933903D02*
X49299257Y-123255514D01*
D16*
%TO.C,MX2*%
X49085509Y-103456888D02*
X35388372Y-101775091D01*
X35388372Y-101775091D02*
X37070169Y-88077954D01*
X37070169Y-88077954D02*
X50767306Y-89759751D01*
X50767306Y-89759751D02*
X49085509Y-103456888D01*
X50974865Y-105300887D02*
X33109034Y-103107239D01*
X33109034Y-103107239D02*
X35180813Y-86233955D01*
X35180813Y-86233955D02*
X53046644Y-88427603D01*
X53046644Y-88427603D02*
X50974865Y-105300887D01*
X49607915Y-104125537D02*
X34719723Y-102297497D01*
X34719723Y-102297497D02*
X36547763Y-87409305D01*
X36547763Y-87409305D02*
X51435955Y-89237345D01*
X51435955Y-89237345D02*
X49607915Y-104125537D01*
D13*
X53692647Y-87474224D02*
X51371036Y-106382229D01*
X34784642Y-85152613D02*
X32463031Y-104060618D01*
X34784642Y-85152613D02*
X53692647Y-87474224D01*
X32463031Y-104060618D02*
X51371036Y-106382229D01*
D12*
%TO.C,R8*%
X155100010Y-113200010D02*
X154300010Y-113200010D01*
X154300010Y-113200010D02*
X154300010Y-111600010D01*
X154300010Y-111600010D02*
X155100010Y-111600010D01*
X155100010Y-111600010D02*
X155100010Y-113200010D01*
D13*
X154190010Y-112562789D02*
X154190010Y-112237231D01*
X155210010Y-112562789D02*
X155210010Y-112237231D01*
D14*
X155430010Y-113880010D02*
X153970010Y-113880010D01*
X153970010Y-113880010D02*
X153970010Y-110920010D01*
X153970010Y-110920010D02*
X155430010Y-110920010D01*
X155430010Y-110920010D02*
X155430010Y-113880010D01*
D12*
%TO.C,R7*%
X149700010Y-115700010D02*
X148900010Y-115700010D01*
X148900010Y-115700010D02*
X148900010Y-114100010D01*
X148900010Y-114100010D02*
X149700010Y-114100010D01*
X149700010Y-114100010D02*
X149700010Y-115700010D01*
D13*
X148790010Y-115062789D02*
X148790010Y-114737231D01*
X149810010Y-115062789D02*
X149810010Y-114737231D01*
D14*
X150030010Y-116380010D02*
X148570010Y-116380010D01*
X148570010Y-116380010D02*
X148570010Y-113420010D01*
X148570010Y-113420010D02*
X150030010Y-113420010D01*
X150030010Y-113420010D02*
X150030010Y-116380010D01*
D12*
%TO.C,R4*%
X153057510Y-104905010D02*
X153057510Y-104105010D01*
X153057510Y-104105010D02*
X154657510Y-104105010D01*
X154657510Y-104105010D02*
X154657510Y-104905010D01*
X154657510Y-104905010D02*
X153057510Y-104905010D01*
D13*
X153694731Y-103995010D02*
X154020289Y-103995010D01*
X153694731Y-105015010D02*
X154020289Y-105015010D01*
D14*
X152377510Y-105235010D02*
X152377510Y-103775010D01*
X152377510Y-103775010D02*
X155337510Y-103775010D01*
X155337510Y-103775010D02*
X155337510Y-105235010D01*
X155337510Y-105235010D02*
X152377510Y-105235010D01*
D12*
%TO.C,R3*%
X158208010Y-71468010D02*
X157408010Y-71468010D01*
X157408010Y-71468010D02*
X157408010Y-69868010D01*
X157408010Y-69868010D02*
X158208010Y-69868010D01*
X158208010Y-69868010D02*
X158208010Y-71468010D01*
D13*
X157298010Y-70830789D02*
X157298010Y-70505231D01*
X158318010Y-70830789D02*
X158318010Y-70505231D01*
D14*
X158538010Y-72148010D02*
X157078010Y-72148010D01*
X157078010Y-72148010D02*
X157078010Y-69188010D01*
X157078010Y-69188010D02*
X158538010Y-69188010D01*
X158538010Y-69188010D02*
X158538010Y-72148010D01*
D12*
%TO.C,R2*%
X143055010Y-69868010D02*
X143855010Y-69868010D01*
X143855010Y-69868010D02*
X143855010Y-71468010D01*
X143855010Y-71468010D02*
X143055010Y-71468010D01*
X143055010Y-71468010D02*
X143055010Y-69868010D01*
D13*
X143965010Y-70505231D02*
X143965010Y-70830789D01*
X142945010Y-70505231D02*
X142945010Y-70830789D01*
D14*
X142725010Y-69188010D02*
X144185010Y-69188010D01*
X144185010Y-69188010D02*
X144185010Y-72148010D01*
X144185010Y-72148010D02*
X142725010Y-72148010D01*
X142725010Y-72148010D02*
X142725010Y-69188010D01*
D12*
%TO.C,R1*%
X141348010Y-69868010D02*
X142148010Y-69868010D01*
X142148010Y-69868010D02*
X142148010Y-71468010D01*
X142148010Y-71468010D02*
X141348010Y-71468010D01*
X141348010Y-71468010D02*
X141348010Y-69868010D01*
D13*
X142258010Y-70505231D02*
X142258010Y-70830789D01*
X141238010Y-70505231D02*
X141238010Y-70830789D01*
D14*
X141018010Y-69188010D02*
X142478010Y-69188010D01*
X142478010Y-69188010D02*
X142478010Y-72148010D01*
X142478010Y-72148010D02*
X141018010Y-72148010D01*
X141018010Y-72148010D02*
X141018010Y-69188010D01*
D12*
%TO.C,D36*%
X148800010Y-111000010D02*
X148800010Y-112300010D01*
X148800010Y-112300010D02*
X149100010Y-112600010D01*
X149100010Y-112600010D02*
X149600010Y-112600010D01*
X149600010Y-112600010D02*
X149600010Y-111000010D01*
X149600010Y-111000010D02*
X148800010Y-111000010D01*
D13*
X148465010Y-111000010D02*
X148465010Y-113285010D01*
X148465010Y-113285010D02*
X149935010Y-113285010D01*
X149935010Y-113285010D02*
X149935010Y-111000010D01*
D14*
X149930010Y-113280010D02*
X148470010Y-113280010D01*
X148470010Y-113280010D02*
X148470010Y-110320010D01*
X148470010Y-110320010D02*
X149930010Y-110320010D01*
X149930010Y-110320010D02*
X149930010Y-113280010D01*
D13*
%TO.C,D34*%
X168139408Y-124170256D02*
X168614699Y-128041186D01*
X166154316Y-124413995D02*
X166629606Y-128284924D01*
D14*
X168276103Y-124052721D02*
X165993247Y-124333020D01*
X166566033Y-128997987D02*
X165993247Y-124333020D01*
X168848889Y-128717688D02*
X166566033Y-128997987D01*
X168276103Y-124052721D02*
X168848889Y-128717688D01*
D12*
X168143742Y-125026107D02*
X168484977Y-127805236D01*
X168484977Y-127805236D02*
X166698394Y-128024601D01*
X166698394Y-128024601D02*
X166357159Y-125245472D01*
X166357159Y-125245472D02*
X168143742Y-125026107D01*
X167329666Y-125780944D02*
X167378414Y-126177963D01*
X167378414Y-126177963D02*
X167924314Y-126110935D01*
X167378414Y-126177963D02*
X166832513Y-126244991D01*
X167378414Y-126177963D02*
X167848554Y-126724743D01*
X167848554Y-126724743D02*
X167054517Y-126822238D01*
X167054517Y-126822238D02*
X167378414Y-126177963D01*
X167451535Y-126773491D02*
X167512470Y-127269764D01*
D13*
X168139408Y-124170256D02*
X166154316Y-124413995D01*
%TO.C,D33*%
X166067629Y-107296971D02*
X166542920Y-111167901D01*
X164082537Y-107540710D02*
X164557827Y-111411639D01*
D14*
X166204324Y-107179436D02*
X163921468Y-107459735D01*
X164494254Y-112124702D02*
X163921468Y-107459735D01*
X166777110Y-111844403D02*
X164494254Y-112124702D01*
X166204324Y-107179436D02*
X166777110Y-111844403D01*
D12*
X166071963Y-108152822D02*
X166413198Y-110931951D01*
X166413198Y-110931951D02*
X164626615Y-111151316D01*
X164626615Y-111151316D02*
X164285380Y-108372187D01*
X164285380Y-108372187D02*
X166071963Y-108152822D01*
X165257887Y-108907659D02*
X165306635Y-109304678D01*
X165306635Y-109304678D02*
X165852535Y-109237650D01*
X165306635Y-109304678D02*
X164760734Y-109371706D01*
X165306635Y-109304678D02*
X165776775Y-109851458D01*
X165776775Y-109851458D02*
X164982738Y-109948953D01*
X164982738Y-109948953D02*
X165306635Y-109304678D01*
X165379756Y-109900206D02*
X165440691Y-110396479D01*
D13*
X166067629Y-107296971D02*
X164082537Y-107540710D01*
%TO.C,D32*%
X163822155Y-90445014D02*
X164297446Y-94315944D01*
X161837063Y-90688753D02*
X162312353Y-94559682D01*
D14*
X163958850Y-90327479D02*
X161675994Y-90607778D01*
X162248780Y-95272745D02*
X161675994Y-90607778D01*
X164531636Y-94992446D02*
X162248780Y-95272745D01*
X163958850Y-90327479D02*
X164531636Y-94992446D01*
D12*
X163826489Y-91300865D02*
X164167724Y-94079994D01*
X164167724Y-94079994D02*
X162381141Y-94299359D01*
X162381141Y-94299359D02*
X162039906Y-91520230D01*
X162039906Y-91520230D02*
X163826489Y-91300865D01*
X163012413Y-92055702D02*
X163061161Y-92452721D01*
X163061161Y-92452721D02*
X163607061Y-92385693D01*
X163061161Y-92452721D02*
X162515260Y-92519749D01*
X163061161Y-92452721D02*
X163531301Y-92999501D01*
X163531301Y-92999501D02*
X162737264Y-93096996D01*
X162737264Y-93096996D02*
X163061161Y-92452721D01*
X163134282Y-93048249D02*
X163195217Y-93544522D01*
D13*
X163822155Y-90445014D02*
X161837063Y-90688753D01*
%TO.C,D31*%
X170113665Y-121786889D02*
X170588956Y-125657819D01*
X168128573Y-122030628D02*
X168603863Y-125901557D01*
D14*
X170250360Y-121669354D02*
X167967504Y-121949653D01*
X168540290Y-126614620D02*
X167967504Y-121949653D01*
X170823146Y-126334321D02*
X168540290Y-126614620D01*
X170250360Y-121669354D02*
X170823146Y-126334321D01*
D12*
X170117999Y-122642740D02*
X170459234Y-125421869D01*
X170459234Y-125421869D02*
X168672651Y-125641234D01*
X168672651Y-125641234D02*
X168331416Y-122862105D01*
X168331416Y-122862105D02*
X170117999Y-122642740D01*
X169303923Y-123397577D02*
X169352671Y-123794596D01*
X169352671Y-123794596D02*
X169898571Y-123727568D01*
X169352671Y-123794596D02*
X168806770Y-123861624D01*
X169352671Y-123794596D02*
X169822811Y-124341376D01*
X169822811Y-124341376D02*
X169028774Y-124438871D01*
X169028774Y-124438871D02*
X169352671Y-123794596D01*
X169425792Y-124390124D02*
X169486727Y-124886397D01*
D13*
X170113665Y-121786889D02*
X168128573Y-122030628D01*
%TO.C,D30*%
X168041886Y-104913605D02*
X168517177Y-108784535D01*
X166056794Y-105157344D02*
X166532084Y-109028273D01*
D14*
X168178581Y-104796070D02*
X165895725Y-105076369D01*
X166468511Y-109741336D02*
X165895725Y-105076369D01*
X168751367Y-109461037D02*
X166468511Y-109741336D01*
X168178581Y-104796070D02*
X168751367Y-109461037D01*
D12*
X168046220Y-105769456D02*
X168387455Y-108548585D01*
X168387455Y-108548585D02*
X166600872Y-108767950D01*
X166600872Y-108767950D02*
X166259637Y-105988821D01*
X166259637Y-105988821D02*
X168046220Y-105769456D01*
X167232144Y-106524293D02*
X167280892Y-106921312D01*
X167280892Y-106921312D02*
X167826792Y-106854284D01*
X167280892Y-106921312D02*
X166734991Y-106988340D01*
X167280892Y-106921312D02*
X167751032Y-107468092D01*
X167751032Y-107468092D02*
X166956995Y-107565587D01*
X166956995Y-107565587D02*
X167280892Y-106921312D01*
X167354013Y-107516840D02*
X167414948Y-108013113D01*
D13*
X168041886Y-104913605D02*
X166056794Y-105157344D01*
%TO.C,D29*%
X165796411Y-88061647D02*
X166271702Y-91932577D01*
X163811319Y-88305386D02*
X164286609Y-92176315D01*
D14*
X165933106Y-87944112D02*
X163650250Y-88224411D01*
X164223036Y-92889378D02*
X163650250Y-88224411D01*
X166505892Y-92609079D02*
X164223036Y-92889378D01*
X165933106Y-87944112D02*
X166505892Y-92609079D01*
D12*
X165800745Y-88917498D02*
X166141980Y-91696627D01*
X166141980Y-91696627D02*
X164355397Y-91915992D01*
X164355397Y-91915992D02*
X164014162Y-89136863D01*
X164014162Y-89136863D02*
X165800745Y-88917498D01*
X164986669Y-89672335D02*
X165035417Y-90069354D01*
X165035417Y-90069354D02*
X165581317Y-90002326D01*
X165035417Y-90069354D02*
X164489516Y-90136382D01*
X165035417Y-90069354D02*
X165505557Y-90616134D01*
X165505557Y-90616134D02*
X164711520Y-90713629D01*
X164711520Y-90713629D02*
X165035417Y-90069354D01*
X165108538Y-90664882D02*
X165169473Y-91161155D01*
D13*
X165796411Y-88061647D02*
X163811319Y-88305386D01*
%TO.C,D28*%
X172087921Y-119403523D02*
X172563212Y-123274453D01*
X170102829Y-119647262D02*
X170578119Y-123518191D01*
D14*
X172224616Y-119285988D02*
X169941760Y-119566287D01*
X170514546Y-124231254D02*
X169941760Y-119566287D01*
X172797402Y-123950955D02*
X170514546Y-124231254D01*
X172224616Y-119285988D02*
X172797402Y-123950955D01*
D12*
X172092255Y-120259374D02*
X172433490Y-123038503D01*
X172433490Y-123038503D02*
X170646907Y-123257868D01*
X170646907Y-123257868D02*
X170305672Y-120478739D01*
X170305672Y-120478739D02*
X172092255Y-120259374D01*
X171278179Y-121014211D02*
X171326927Y-121411230D01*
X171326927Y-121411230D02*
X171872827Y-121344202D01*
X171326927Y-121411230D02*
X170781026Y-121478258D01*
X171326927Y-121411230D02*
X171797067Y-121958010D01*
X171797067Y-121958010D02*
X171003030Y-122055505D01*
X171003030Y-122055505D02*
X171326927Y-121411230D01*
X171400048Y-122006758D02*
X171460983Y-122503031D01*
D13*
X172087921Y-119403523D02*
X170102829Y-119647262D01*
%TO.C,D27*%
X170016142Y-102530238D02*
X170491433Y-106401168D01*
X168031050Y-102773977D02*
X168506340Y-106644906D01*
D14*
X170152837Y-102412703D02*
X167869981Y-102693002D01*
X168442767Y-107357969D02*
X167869981Y-102693002D01*
X170725623Y-107077670D02*
X168442767Y-107357969D01*
X170152837Y-102412703D02*
X170725623Y-107077670D01*
D12*
X170020476Y-103386089D02*
X170361711Y-106165218D01*
X170361711Y-106165218D02*
X168575128Y-106384583D01*
X168575128Y-106384583D02*
X168233893Y-103605454D01*
X168233893Y-103605454D02*
X170020476Y-103386089D01*
X169206400Y-104140926D02*
X169255148Y-104537945D01*
X169255148Y-104537945D02*
X169801048Y-104470917D01*
X169255148Y-104537945D02*
X168709247Y-104604973D01*
X169255148Y-104537945D02*
X169725288Y-105084725D01*
X169725288Y-105084725D02*
X168931251Y-105182220D01*
X168931251Y-105182220D02*
X169255148Y-104537945D01*
X169328269Y-105133473D02*
X169389204Y-105629746D01*
D13*
X170016142Y-102530238D02*
X168031050Y-102773977D01*
%TO.C,D26*%
X167770668Y-85678280D02*
X168245959Y-89549210D01*
X165785576Y-85922019D02*
X166260866Y-89792948D01*
D14*
X167907363Y-85560745D02*
X165624507Y-85841044D01*
X166197293Y-90506011D02*
X165624507Y-85841044D01*
X168480149Y-90225712D02*
X166197293Y-90506011D01*
X167907363Y-85560745D02*
X168480149Y-90225712D01*
D12*
X167775002Y-86534131D02*
X168116237Y-89313260D01*
X168116237Y-89313260D02*
X166329654Y-89532625D01*
X166329654Y-89532625D02*
X165988419Y-86753496D01*
X165988419Y-86753496D02*
X167775002Y-86534131D01*
X166960926Y-87288968D02*
X167009674Y-87685987D01*
X167009674Y-87685987D02*
X167555574Y-87618959D01*
X167009674Y-87685987D02*
X166463773Y-87753015D01*
X167009674Y-87685987D02*
X167479814Y-88232767D01*
X167479814Y-88232767D02*
X166685777Y-88330262D01*
X166685777Y-88330262D02*
X167009674Y-87685987D01*
X167082795Y-88281515D02*
X167143730Y-88777788D01*
D13*
X167770668Y-85678280D02*
X165785576Y-85922019D01*
%TO.C,D25*%
X176133956Y-133893441D02*
X176609247Y-137764371D01*
X174148864Y-134137180D02*
X174624154Y-138008109D01*
D14*
X176270651Y-133775906D02*
X173987795Y-134056205D01*
X174560581Y-138721172D02*
X173987795Y-134056205D01*
X176843437Y-138440873D02*
X174560581Y-138721172D01*
X176270651Y-133775906D02*
X176843437Y-138440873D01*
D12*
X176138290Y-134749292D02*
X176479525Y-137528421D01*
X176479525Y-137528421D02*
X174692942Y-137747786D01*
X174692942Y-137747786D02*
X174351707Y-134968657D01*
X174351707Y-134968657D02*
X176138290Y-134749292D01*
X175324214Y-135504129D02*
X175372962Y-135901148D01*
X175372962Y-135901148D02*
X175918862Y-135834120D01*
X175372962Y-135901148D02*
X174827061Y-135968176D01*
X175372962Y-135901148D02*
X175843102Y-136447928D01*
X175843102Y-136447928D02*
X175049065Y-136545423D01*
X175049065Y-136545423D02*
X175372962Y-135901148D01*
X175446083Y-136496676D02*
X175507018Y-136992949D01*
D13*
X176133956Y-133893441D02*
X174148864Y-134137180D01*
%TO.C,D24*%
X174062178Y-117020156D02*
X174537469Y-120891086D01*
X172077086Y-117263895D02*
X172552376Y-121134824D01*
D14*
X174198873Y-116902621D02*
X171916017Y-117182920D01*
X172488803Y-121847887D02*
X171916017Y-117182920D01*
X174771659Y-121567588D02*
X172488803Y-121847887D01*
X174198873Y-116902621D02*
X174771659Y-121567588D01*
D12*
X174066512Y-117876007D02*
X174407747Y-120655136D01*
X174407747Y-120655136D02*
X172621164Y-120874501D01*
X172621164Y-120874501D02*
X172279929Y-118095372D01*
X172279929Y-118095372D02*
X174066512Y-117876007D01*
X173252436Y-118630844D02*
X173301184Y-119027863D01*
X173301184Y-119027863D02*
X173847084Y-118960835D01*
X173301184Y-119027863D02*
X172755283Y-119094891D01*
X173301184Y-119027863D02*
X173771324Y-119574643D01*
X173771324Y-119574643D02*
X172977287Y-119672138D01*
X172977287Y-119672138D02*
X173301184Y-119027863D01*
X173374305Y-119623391D02*
X173435240Y-120119664D01*
D13*
X174062178Y-117020156D02*
X172077086Y-117263895D01*
%TO.C,D23*%
X171990399Y-100146871D02*
X172465690Y-104017801D01*
X170005307Y-100390610D02*
X170480597Y-104261539D01*
D14*
X172127094Y-100029336D02*
X169844238Y-100309635D01*
X170417024Y-104974602D02*
X169844238Y-100309635D01*
X172699880Y-104694303D02*
X170417024Y-104974602D01*
X172127094Y-100029336D02*
X172699880Y-104694303D01*
D12*
X171994733Y-101002722D02*
X172335968Y-103781851D01*
X172335968Y-103781851D02*
X170549385Y-104001216D01*
X170549385Y-104001216D02*
X170208150Y-101222087D01*
X170208150Y-101222087D02*
X171994733Y-101002722D01*
X171180657Y-101757559D02*
X171229405Y-102154578D01*
X171229405Y-102154578D02*
X171775305Y-102087550D01*
X171229405Y-102154578D02*
X170683504Y-102221606D01*
X171229405Y-102154578D02*
X171699545Y-102701358D01*
X171699545Y-102701358D02*
X170905508Y-102798853D01*
X170905508Y-102798853D02*
X171229405Y-102154578D01*
X171302526Y-102750106D02*
X171363461Y-103246379D01*
D13*
X171990399Y-100146871D02*
X170005307Y-100390610D01*
%TO.C,D22*%
X169744924Y-83294914D02*
X170220215Y-87165844D01*
X167759832Y-83538653D02*
X168235122Y-87409582D01*
D14*
X169881619Y-83177379D02*
X167598763Y-83457678D01*
X168171549Y-88122645D02*
X167598763Y-83457678D01*
X170454405Y-87842346D02*
X168171549Y-88122645D01*
X169881619Y-83177379D02*
X170454405Y-87842346D01*
D12*
X169749258Y-84150765D02*
X170090493Y-86929894D01*
X170090493Y-86929894D02*
X168303910Y-87149259D01*
X168303910Y-87149259D02*
X167962675Y-84370130D01*
X167962675Y-84370130D02*
X169749258Y-84150765D01*
X168935182Y-84905602D02*
X168983930Y-85302621D01*
X168983930Y-85302621D02*
X169529830Y-85235593D01*
X168983930Y-85302621D02*
X168438029Y-85369649D01*
X168983930Y-85302621D02*
X169454070Y-85849401D01*
X169454070Y-85849401D02*
X168660033Y-85946896D01*
X168660033Y-85946896D02*
X168983930Y-85302621D01*
X169057051Y-85898149D02*
X169117986Y-86394422D01*
D13*
X169744924Y-83294914D02*
X167759832Y-83538653D01*
%TO.C,D21*%
X178108213Y-131510074D02*
X178583504Y-135381004D01*
X176123121Y-131753813D02*
X176598411Y-135624742D01*
D14*
X178244908Y-131392539D02*
X175962052Y-131672838D01*
X176534838Y-136337805D02*
X175962052Y-131672838D01*
X178817694Y-136057506D02*
X176534838Y-136337805D01*
X178244908Y-131392539D02*
X178817694Y-136057506D01*
D12*
X178112547Y-132365925D02*
X178453782Y-135145054D01*
X178453782Y-135145054D02*
X176667199Y-135364419D01*
X176667199Y-135364419D02*
X176325964Y-132585290D01*
X176325964Y-132585290D02*
X178112547Y-132365925D01*
X177298471Y-133120762D02*
X177347219Y-133517781D01*
X177347219Y-133517781D02*
X177893119Y-133450753D01*
X177347219Y-133517781D02*
X176801318Y-133584809D01*
X177347219Y-133517781D02*
X177817359Y-134064561D01*
X177817359Y-134064561D02*
X177023322Y-134162056D01*
X177023322Y-134162056D02*
X177347219Y-133517781D01*
X177420340Y-134113309D02*
X177481275Y-134609582D01*
D13*
X178108213Y-131510074D02*
X176123121Y-131753813D01*
%TO.C,D20*%
X176036434Y-114636789D02*
X176511725Y-118507719D01*
X174051342Y-114880528D02*
X174526632Y-118751457D01*
D14*
X176173129Y-114519254D02*
X173890273Y-114799553D01*
X174463059Y-119464520D02*
X173890273Y-114799553D01*
X176745915Y-119184221D02*
X174463059Y-119464520D01*
X176173129Y-114519254D02*
X176745915Y-119184221D01*
D12*
X176040768Y-115492640D02*
X176382003Y-118271769D01*
X176382003Y-118271769D02*
X174595420Y-118491134D01*
X174595420Y-118491134D02*
X174254185Y-115712005D01*
X174254185Y-115712005D02*
X176040768Y-115492640D01*
X175226692Y-116247477D02*
X175275440Y-116644496D01*
X175275440Y-116644496D02*
X175821340Y-116577468D01*
X175275440Y-116644496D02*
X174729539Y-116711524D01*
X175275440Y-116644496D02*
X175745580Y-117191276D01*
X175745580Y-117191276D02*
X174951543Y-117288771D01*
X174951543Y-117288771D02*
X175275440Y-116644496D01*
X175348561Y-117240024D02*
X175409496Y-117736297D01*
D13*
X176036434Y-114636789D02*
X174051342Y-114880528D01*
%TO.C,D19*%
X173964655Y-97763505D02*
X174439946Y-101634435D01*
X171979563Y-98007244D02*
X172454853Y-101878173D01*
D14*
X174101350Y-97645970D02*
X171818494Y-97926269D01*
X172391280Y-102591236D02*
X171818494Y-97926269D01*
X174674136Y-102310937D02*
X172391280Y-102591236D01*
X174101350Y-97645970D02*
X174674136Y-102310937D01*
D12*
X173968989Y-98619356D02*
X174310224Y-101398485D01*
X174310224Y-101398485D02*
X172523641Y-101617850D01*
X172523641Y-101617850D02*
X172182406Y-98838721D01*
X172182406Y-98838721D02*
X173968989Y-98619356D01*
X173154913Y-99374193D02*
X173203661Y-99771212D01*
X173203661Y-99771212D02*
X173749561Y-99704184D01*
X173203661Y-99771212D02*
X172657760Y-99838240D01*
X173203661Y-99771212D02*
X173673801Y-100317992D01*
X173673801Y-100317992D02*
X172879764Y-100415487D01*
X172879764Y-100415487D02*
X173203661Y-99771212D01*
X173276782Y-100366740D02*
X173337717Y-100863013D01*
D13*
X173964655Y-97763505D02*
X171979563Y-98007244D01*
%TO.C,D18*%
X171783696Y-80903626D02*
X172258987Y-84774556D01*
X169798604Y-81147365D02*
X170273894Y-85018294D01*
D14*
X171920391Y-80786091D02*
X169637535Y-81066390D01*
X170210321Y-85731357D02*
X169637535Y-81066390D01*
X172493177Y-85451058D02*
X170210321Y-85731357D01*
X171920391Y-80786091D02*
X172493177Y-85451058D01*
D12*
X171788030Y-81759477D02*
X172129265Y-84538606D01*
X172129265Y-84538606D02*
X170342682Y-84757971D01*
X170342682Y-84757971D02*
X170001447Y-81978842D01*
X170001447Y-81978842D02*
X171788030Y-81759477D01*
X170973954Y-82514314D02*
X171022702Y-82911333D01*
X171022702Y-82911333D02*
X171568602Y-82844305D01*
X171022702Y-82911333D02*
X170476801Y-82978361D01*
X171022702Y-82911333D02*
X171492842Y-83458113D01*
X171492842Y-83458113D02*
X170698805Y-83555608D01*
X170698805Y-83555608D02*
X171022702Y-82911333D01*
X171095823Y-83506861D02*
X171156758Y-84003134D01*
D13*
X171783696Y-80903626D02*
X169798604Y-81147365D01*
%TO.C,D17*%
X123540389Y-131766673D02*
X121555297Y-131522934D01*
D12*
X122243170Y-134126169D02*
X122182235Y-134622442D01*
X121846151Y-134077421D02*
X122316291Y-133530641D01*
X122640188Y-134174916D02*
X121846151Y-134077421D01*
X122316291Y-133530641D02*
X122640188Y-134174916D01*
X122316291Y-133530641D02*
X121770391Y-133463613D01*
X122316291Y-133530641D02*
X122862192Y-133597669D01*
X122365039Y-133133622D02*
X122316291Y-133530641D01*
X121550963Y-132378785D02*
X123337546Y-132598150D01*
X121209728Y-135157914D02*
X121550963Y-132378785D01*
X122996311Y-135377279D02*
X121209728Y-135157914D01*
X123337546Y-132598150D02*
X122996311Y-135377279D01*
D14*
X123701458Y-131685698D02*
X123128672Y-136350665D01*
X123128672Y-136350665D02*
X120845816Y-136070366D01*
X120845816Y-136070366D02*
X121418602Y-131405399D01*
X123701458Y-131685698D02*
X121418602Y-131405399D01*
D13*
X121555297Y-131522934D02*
X121080006Y-135393864D01*
X123540389Y-131766673D02*
X123065099Y-135637602D01*
%TO.C,D16*%
X125592317Y-114890951D02*
X123607225Y-114647212D01*
D12*
X124295098Y-117250447D02*
X124234163Y-117746720D01*
X123898079Y-117201699D02*
X124368219Y-116654919D01*
X124692116Y-117299194D02*
X123898079Y-117201699D01*
X124368219Y-116654919D02*
X124692116Y-117299194D01*
X124368219Y-116654919D02*
X123822319Y-116587891D01*
X124368219Y-116654919D02*
X124914120Y-116721947D01*
X124416967Y-116257900D02*
X124368219Y-116654919D01*
X123602891Y-115503063D02*
X125389474Y-115722428D01*
X123261656Y-118282192D02*
X123602891Y-115503063D01*
X125048239Y-118501557D02*
X123261656Y-118282192D01*
X125389474Y-115722428D02*
X125048239Y-118501557D01*
D14*
X125753386Y-114809976D02*
X125180600Y-119474943D01*
X125180600Y-119474943D02*
X122897744Y-119194644D01*
X122897744Y-119194644D02*
X123470530Y-114529677D01*
X125753386Y-114809976D02*
X123470530Y-114529677D01*
D13*
X123607225Y-114647212D02*
X123131934Y-118518142D01*
X125592317Y-114890951D02*
X125117027Y-118761880D01*
%TO.C,D15*%
X127683947Y-98020104D02*
X125698855Y-97776365D01*
D12*
X126386728Y-100379600D02*
X126325793Y-100875873D01*
X125989709Y-100330852D02*
X126459849Y-99784072D01*
X126783746Y-100428347D02*
X125989709Y-100330852D01*
X126459849Y-99784072D02*
X126783746Y-100428347D01*
X126459849Y-99784072D02*
X125913949Y-99717044D01*
X126459849Y-99784072D02*
X127005750Y-99851100D01*
X126508597Y-99387053D02*
X126459849Y-99784072D01*
X125694521Y-98632216D02*
X127481104Y-98851581D01*
X125353286Y-101411345D02*
X125694521Y-98632216D01*
X127139869Y-101630710D02*
X125353286Y-101411345D01*
X127481104Y-98851581D02*
X127139869Y-101630710D01*
D14*
X127845016Y-97939129D02*
X127272230Y-102604096D01*
X127272230Y-102604096D02*
X124989374Y-102323797D01*
X124989374Y-102323797D02*
X125562160Y-97658830D01*
X127845016Y-97939129D02*
X125562160Y-97658830D01*
D13*
X125698855Y-97776365D02*
X125223564Y-101647295D01*
X127683947Y-98020104D02*
X127208657Y-101891033D01*
%TO.C,D14*%
X129755726Y-81146819D02*
X127770634Y-80903080D01*
D12*
X128458507Y-83506315D02*
X128397572Y-84002588D01*
X128061488Y-83457567D02*
X128531628Y-82910787D01*
X128855525Y-83555062D02*
X128061488Y-83457567D01*
X128531628Y-82910787D02*
X128855525Y-83555062D01*
X128531628Y-82910787D02*
X127985728Y-82843759D01*
X128531628Y-82910787D02*
X129077529Y-82977815D01*
X128580376Y-82513768D02*
X128531628Y-82910787D01*
X127766300Y-81758931D02*
X129552883Y-81978296D01*
X127425065Y-84538060D02*
X127766300Y-81758931D01*
X129211648Y-84757425D02*
X127425065Y-84538060D01*
X129552883Y-81978296D02*
X129211648Y-84757425D01*
D14*
X129916795Y-81065844D02*
X129344009Y-85730811D01*
X129344009Y-85730811D02*
X127061153Y-85450512D01*
X127061153Y-85450512D02*
X127633939Y-80785545D01*
X129916795Y-81065844D02*
X127633939Y-80785545D01*
D13*
X127770634Y-80903080D02*
X127295343Y-84774010D01*
X129755726Y-81146819D02*
X129280436Y-85017748D01*
%TO.C,D13*%
X125514646Y-134150040D02*
X123529554Y-133906301D01*
D12*
X124217427Y-136509536D02*
X124156492Y-137005809D01*
X123820408Y-136460788D02*
X124290548Y-135914008D01*
X124614445Y-136558283D02*
X123820408Y-136460788D01*
X124290548Y-135914008D02*
X124614445Y-136558283D01*
X124290548Y-135914008D02*
X123744648Y-135846980D01*
X124290548Y-135914008D02*
X124836449Y-135981036D01*
X124339296Y-135516989D02*
X124290548Y-135914008D01*
X123525220Y-134762152D02*
X125311803Y-134981517D01*
X123183985Y-137541281D02*
X123525220Y-134762152D01*
X124970568Y-137760646D02*
X123183985Y-137541281D01*
X125311803Y-134981517D02*
X124970568Y-137760646D01*
D14*
X125675715Y-134069065D02*
X125102929Y-138734032D01*
X125102929Y-138734032D02*
X122820073Y-138453733D01*
X122820073Y-138453733D02*
X123392859Y-133788766D01*
X125675715Y-134069065D02*
X123392859Y-133788766D01*
D13*
X123529554Y-133906301D02*
X123054263Y-137777231D01*
X125514646Y-134150040D02*
X125039356Y-138020969D01*
%TO.C,D12*%
X127586424Y-117276755D02*
X125601332Y-117033016D01*
D12*
X126289205Y-119636251D02*
X126228270Y-120132524D01*
X125892186Y-119587503D02*
X126362326Y-119040723D01*
X126686223Y-119684998D02*
X125892186Y-119587503D01*
X126362326Y-119040723D02*
X126686223Y-119684998D01*
X126362326Y-119040723D02*
X125816426Y-118973695D01*
X126362326Y-119040723D02*
X126908227Y-119107751D01*
X126411074Y-118643704D02*
X126362326Y-119040723D01*
X125596998Y-117888867D02*
X127383581Y-118108232D01*
X125255763Y-120667996D02*
X125596998Y-117888867D01*
X127042346Y-120887361D02*
X125255763Y-120667996D01*
X127383581Y-118108232D02*
X127042346Y-120887361D01*
D14*
X127747493Y-117195780D02*
X127174707Y-121860747D01*
X127174707Y-121860747D02*
X124891851Y-121580448D01*
X124891851Y-121580448D02*
X125464637Y-116915481D01*
X127747493Y-117195780D02*
X125464637Y-116915481D01*
D13*
X125601332Y-117033016D02*
X125126041Y-120903946D01*
X127586424Y-117276755D02*
X127111134Y-121147684D01*
%TO.C,D11*%
X129658203Y-100403470D02*
X127673111Y-100159731D01*
D12*
X128360984Y-102762966D02*
X128300049Y-103259239D01*
X127963965Y-102714218D02*
X128434105Y-102167438D01*
X128758002Y-102811713D02*
X127963965Y-102714218D01*
X128434105Y-102167438D02*
X128758002Y-102811713D01*
X128434105Y-102167438D02*
X127888205Y-102100410D01*
X128434105Y-102167438D02*
X128980006Y-102234466D01*
X128482853Y-101770419D02*
X128434105Y-102167438D01*
X127668777Y-101015582D02*
X129455360Y-101234947D01*
X127327542Y-103794711D02*
X127668777Y-101015582D01*
X129114125Y-104014076D02*
X127327542Y-103794711D01*
X129455360Y-101234947D02*
X129114125Y-104014076D01*
D14*
X129819272Y-100322495D02*
X129246486Y-104987462D01*
X129246486Y-104987462D02*
X126963630Y-104707163D01*
X126963630Y-104707163D02*
X127536416Y-100042196D01*
X129819272Y-100322495D02*
X127536416Y-100042196D01*
D13*
X127673111Y-100159731D02*
X127197820Y-104030661D01*
X129658203Y-100403470D02*
X129182913Y-104274399D01*
%TO.C,D10*%
X131729982Y-83530186D02*
X129744890Y-83286447D01*
D12*
X130432763Y-85889682D02*
X130371828Y-86385955D01*
X130035744Y-85840934D02*
X130505884Y-85294154D01*
X130829781Y-85938429D02*
X130035744Y-85840934D01*
X130505884Y-85294154D02*
X130829781Y-85938429D01*
X130505884Y-85294154D02*
X129959984Y-85227126D01*
X130505884Y-85294154D02*
X131051785Y-85361182D01*
X130554632Y-84897135D02*
X130505884Y-85294154D01*
X129740556Y-84142298D02*
X131527139Y-84361663D01*
X129399321Y-86921427D02*
X129740556Y-84142298D01*
X131185904Y-87140792D02*
X129399321Y-86921427D01*
X131527139Y-84361663D02*
X131185904Y-87140792D01*
D14*
X131891051Y-83449211D02*
X131318265Y-88114178D01*
X131318265Y-88114178D02*
X129035409Y-87833879D01*
X129035409Y-87833879D02*
X129608195Y-83168912D01*
X131891051Y-83449211D02*
X129608195Y-83168912D01*
D13*
X129744890Y-83286447D02*
X129269599Y-87157377D01*
X131729982Y-83530186D02*
X131254692Y-87401115D01*
%TO.C,D9*%
X129560681Y-119660122D02*
X127575589Y-119416383D01*
D12*
X128263462Y-122019618D02*
X128202527Y-122515891D01*
X127866443Y-121970870D02*
X128336583Y-121424090D01*
X128660480Y-122068365D02*
X127866443Y-121970870D01*
X128336583Y-121424090D02*
X128660480Y-122068365D01*
X128336583Y-121424090D02*
X127790683Y-121357062D01*
X128336583Y-121424090D02*
X128882484Y-121491118D01*
X128385331Y-121027071D02*
X128336583Y-121424090D01*
X127571255Y-120272234D02*
X129357838Y-120491599D01*
X127230020Y-123051363D02*
X127571255Y-120272234D01*
X129016603Y-123270728D02*
X127230020Y-123051363D01*
X129357838Y-120491599D02*
X129016603Y-123270728D01*
D14*
X129721750Y-119579147D02*
X129148964Y-124244114D01*
X129148964Y-124244114D02*
X126866108Y-123963815D01*
X126866108Y-123963815D02*
X127438894Y-119298848D01*
X129721750Y-119579147D02*
X127438894Y-119298848D01*
D13*
X127575589Y-119416383D02*
X127100298Y-123287313D01*
X129560681Y-119660122D02*
X129085391Y-123531051D01*
%TO.C,D8*%
X131632460Y-102786837D02*
X129647368Y-102543098D01*
D12*
X130335241Y-105146333D02*
X130274306Y-105642606D01*
X129938222Y-105097585D02*
X130408362Y-104550805D01*
X130732259Y-105195080D02*
X129938222Y-105097585D01*
X130408362Y-104550805D02*
X130732259Y-105195080D01*
X130408362Y-104550805D02*
X129862462Y-104483777D01*
X130408362Y-104550805D02*
X130954263Y-104617833D01*
X130457110Y-104153786D02*
X130408362Y-104550805D01*
X129643034Y-103398949D02*
X131429617Y-103618314D01*
X129301799Y-106178078D02*
X129643034Y-103398949D01*
X131088382Y-106397443D02*
X129301799Y-106178078D01*
X131429617Y-103618314D02*
X131088382Y-106397443D01*
D14*
X131793529Y-102705862D02*
X131220743Y-107370829D01*
X131220743Y-107370829D02*
X128937887Y-107090530D01*
X128937887Y-107090530D02*
X129510673Y-102425563D01*
X131793529Y-102705862D02*
X129510673Y-102425563D01*
D13*
X129647368Y-102543098D02*
X129172077Y-106414028D01*
X131632460Y-102786837D02*
X131157170Y-106657766D01*
%TO.C,D7*%
X133704239Y-85913552D02*
X131719147Y-85669813D01*
D12*
X132407020Y-88273048D02*
X132346085Y-88769321D01*
X132010001Y-88224300D02*
X132480141Y-87677520D01*
X132804038Y-88321795D02*
X132010001Y-88224300D01*
X132480141Y-87677520D02*
X132804038Y-88321795D01*
X132480141Y-87677520D02*
X131934241Y-87610492D01*
X132480141Y-87677520D02*
X133026042Y-87744548D01*
X132528889Y-87280501D02*
X132480141Y-87677520D01*
X131714813Y-86525664D02*
X133501396Y-86745029D01*
X131373578Y-89304793D02*
X131714813Y-86525664D01*
X133160161Y-89524158D02*
X131373578Y-89304793D01*
X133501396Y-86745029D02*
X133160161Y-89524158D01*
D14*
X133865308Y-85832577D02*
X133292522Y-90497544D01*
X133292522Y-90497544D02*
X131009666Y-90217245D01*
X131009666Y-90217245D02*
X131582452Y-85552278D01*
X133865308Y-85832577D02*
X131582452Y-85552278D01*
D13*
X131719147Y-85669813D02*
X131243856Y-89540743D01*
X133704239Y-85913552D02*
X133228949Y-89784481D01*
%TO.C,D6*%
X131534937Y-122043488D02*
X129549845Y-121799749D01*
D12*
X130237718Y-124402984D02*
X130176783Y-124899257D01*
X129840699Y-124354236D02*
X130310839Y-123807456D01*
X130634736Y-124451731D02*
X129840699Y-124354236D01*
X130310839Y-123807456D02*
X130634736Y-124451731D01*
X130310839Y-123807456D02*
X129764939Y-123740428D01*
X130310839Y-123807456D02*
X130856740Y-123874484D01*
X130359587Y-123410437D02*
X130310839Y-123807456D01*
X129545511Y-122655600D02*
X131332094Y-122874965D01*
X129204276Y-125434729D02*
X129545511Y-122655600D01*
X130990859Y-125654094D02*
X129204276Y-125434729D01*
X131332094Y-122874965D02*
X130990859Y-125654094D01*
D14*
X131696006Y-121962513D02*
X131123220Y-126627480D01*
X131123220Y-126627480D02*
X128840364Y-126347181D01*
X128840364Y-126347181D02*
X129413150Y-121682214D01*
X131696006Y-121962513D02*
X129413150Y-121682214D01*
D13*
X129549845Y-121799749D02*
X129074554Y-125670679D01*
X131534937Y-122043488D02*
X131059647Y-125914417D01*
%TO.C,D5*%
X133606716Y-105170204D02*
X131621624Y-104926465D01*
D12*
X132309497Y-107529700D02*
X132248562Y-108025973D01*
X131912478Y-107480952D02*
X132382618Y-106934172D01*
X132706515Y-107578447D02*
X131912478Y-107480952D01*
X132382618Y-106934172D02*
X132706515Y-107578447D01*
X132382618Y-106934172D02*
X131836718Y-106867144D01*
X132382618Y-106934172D02*
X132928519Y-107001200D01*
X132431366Y-106537153D02*
X132382618Y-106934172D01*
X131617290Y-105782316D02*
X133403873Y-106001681D01*
X131276055Y-108561445D02*
X131617290Y-105782316D01*
X133062638Y-108780810D02*
X131276055Y-108561445D01*
X133403873Y-106001681D02*
X133062638Y-108780810D01*
D14*
X133767785Y-105089229D02*
X133194999Y-109754196D01*
X133194999Y-109754196D02*
X130912143Y-109473897D01*
X130912143Y-109473897D02*
X131484929Y-104808930D01*
X133767785Y-105089229D02*
X131484929Y-104808930D01*
D13*
X131621624Y-104926465D02*
X131146333Y-108797395D01*
X133606716Y-105170204D02*
X133131426Y-109041133D01*
%TO.C,D4*%
X135678495Y-88296919D02*
X133693403Y-88053180D01*
D12*
X134381276Y-90656415D02*
X134320341Y-91152688D01*
X133984257Y-90607667D02*
X134454397Y-90060887D01*
X134778294Y-90705162D02*
X133984257Y-90607667D01*
X134454397Y-90060887D02*
X134778294Y-90705162D01*
X134454397Y-90060887D02*
X133908497Y-89993859D01*
X134454397Y-90060887D02*
X135000298Y-90127915D01*
X134503145Y-89663868D02*
X134454397Y-90060887D01*
X133689069Y-88909031D02*
X135475652Y-89128396D01*
X133347834Y-91688160D02*
X133689069Y-88909031D01*
X135134417Y-91907525D02*
X133347834Y-91688160D01*
X135475652Y-89128396D02*
X135134417Y-91907525D01*
D14*
X135839564Y-88215944D02*
X135266778Y-92880911D01*
X135266778Y-92880911D02*
X132983922Y-92600612D01*
X132983922Y-92600612D02*
X133556708Y-87935645D01*
X135839564Y-88215944D02*
X133556708Y-87935645D01*
D13*
X133693403Y-88053180D02*
X133218112Y-91924110D01*
X135678495Y-88296919D02*
X135203205Y-92167848D01*
%TO.C,D3*%
X133509194Y-124426855D02*
X131524102Y-124183116D01*
D12*
X132211975Y-126786351D02*
X132151040Y-127282624D01*
X131814956Y-126737603D02*
X132285096Y-126190823D01*
X132608993Y-126835098D02*
X131814956Y-126737603D01*
X132285096Y-126190823D02*
X132608993Y-126835098D01*
X132285096Y-126190823D02*
X131739196Y-126123795D01*
X132285096Y-126190823D02*
X132830997Y-126257851D01*
X132333844Y-125793804D02*
X132285096Y-126190823D01*
X131519768Y-125038967D02*
X133306351Y-125258332D01*
X131178533Y-127818096D02*
X131519768Y-125038967D01*
X132965116Y-128037461D02*
X131178533Y-127818096D01*
X133306351Y-125258332D02*
X132965116Y-128037461D01*
D14*
X133670263Y-124345880D02*
X133097477Y-129010847D01*
X133097477Y-129010847D02*
X130814621Y-128730548D01*
X130814621Y-128730548D02*
X131387407Y-124065581D01*
X133670263Y-124345880D02*
X131387407Y-124065581D01*
D13*
X131524102Y-124183116D02*
X131048811Y-128054046D01*
X133509194Y-124426855D02*
X133033904Y-128297784D01*
%TO.C,D2*%
X135580973Y-107553570D02*
X133595881Y-107309831D01*
D12*
X134283754Y-109913066D02*
X134222819Y-110409339D01*
X133886735Y-109864318D02*
X134356875Y-109317538D01*
X134680772Y-109961813D02*
X133886735Y-109864318D01*
X134356875Y-109317538D02*
X134680772Y-109961813D01*
X134356875Y-109317538D02*
X133810975Y-109250510D01*
X134356875Y-109317538D02*
X134902776Y-109384566D01*
X134405623Y-108920519D02*
X134356875Y-109317538D01*
X133591547Y-108165682D02*
X135378130Y-108385047D01*
X133250312Y-110944811D02*
X133591547Y-108165682D01*
X135036895Y-111164176D02*
X133250312Y-110944811D01*
X135378130Y-108385047D02*
X135036895Y-111164176D01*
D14*
X135742042Y-107472595D02*
X135169256Y-112137562D01*
X135169256Y-112137562D02*
X132886400Y-111857263D01*
X132886400Y-111857263D02*
X133459186Y-107192296D01*
X135742042Y-107472595D02*
X133459186Y-107192296D01*
D13*
X133595881Y-107309831D02*
X133120590Y-111180761D01*
X135580973Y-107553570D02*
X135105683Y-111424499D01*
%TO.C,D1*%
X137652751Y-90680286D02*
X135667659Y-90436547D01*
D12*
X136355532Y-93039782D02*
X136294597Y-93536055D01*
X135958513Y-92991034D02*
X136428653Y-92444254D01*
X136752550Y-93088529D02*
X135958513Y-92991034D01*
X136428653Y-92444254D02*
X136752550Y-93088529D01*
X136428653Y-92444254D02*
X135882753Y-92377226D01*
X136428653Y-92444254D02*
X136974554Y-92511282D01*
X136477401Y-92047235D02*
X136428653Y-92444254D01*
X135663325Y-91292398D02*
X137449908Y-91511763D01*
X135322090Y-94071527D02*
X135663325Y-91292398D01*
X137108673Y-94290892D02*
X135322090Y-94071527D01*
X137449908Y-91511763D02*
X137108673Y-94290892D01*
D14*
X137813820Y-90599311D02*
X137241034Y-95264278D01*
X137241034Y-95264278D02*
X134958178Y-94983979D01*
X134958178Y-94983979D02*
X135530964Y-90319012D01*
X137813820Y-90599311D02*
X135530964Y-90319012D01*
D13*
X135667659Y-90436547D02*
X135192368Y-94307477D01*
X137652751Y-90680286D02*
X137177461Y-94551215D01*
D12*
%TO.C,C4*%
X149650010Y-118837510D02*
X148850010Y-118837510D01*
X148850010Y-118837510D02*
X148850010Y-117237510D01*
X148850010Y-117237510D02*
X149650010Y-117237510D01*
X149650010Y-117237510D02*
X149650010Y-118837510D01*
D13*
X148740010Y-118200289D02*
X148740010Y-117874731D01*
X149760010Y-118200289D02*
X149760010Y-117874731D01*
D14*
X149980010Y-119517510D02*
X148520010Y-119517510D01*
X148520010Y-119517510D02*
X148520010Y-116557510D01*
X148520010Y-116557510D02*
X149980010Y-116557510D01*
X149980010Y-116557510D02*
X149980010Y-119517510D01*
D12*
%TO.C,C2*%
X152164010Y-109431010D02*
X151364010Y-109431010D01*
X151364010Y-109431010D02*
X151364010Y-107831010D01*
X151364010Y-107831010D02*
X152164010Y-107831010D01*
X152164010Y-107831010D02*
X152164010Y-109431010D01*
D13*
X151254010Y-108793789D02*
X151254010Y-108468231D01*
X152274010Y-108793789D02*
X152274010Y-108468231D01*
D14*
X152494010Y-110111010D02*
X151034010Y-110111010D01*
X151034010Y-110111010D02*
X151034010Y-107151010D01*
X151034010Y-107151010D02*
X152494010Y-107151010D01*
X152494010Y-107151010D02*
X152494010Y-110111010D01*
D12*
%TO.C,C1*%
X156498010Y-71468010D02*
X155698010Y-71468010D01*
X155698010Y-71468010D02*
X155698010Y-69868010D01*
X155698010Y-69868010D02*
X156498010Y-69868010D01*
X156498010Y-69868010D02*
X156498010Y-71468010D01*
D13*
X155588010Y-70830789D02*
X155588010Y-70505231D01*
X156608010Y-70830789D02*
X156608010Y-70505231D01*
D14*
X156828010Y-72148010D02*
X155368010Y-72148010D01*
X155368010Y-72148010D02*
X155368010Y-69188010D01*
X155368010Y-69188010D02*
X156828010Y-69188010D01*
X156828010Y-69188010D02*
X156828010Y-72148010D01*
D13*
%TO.C,U3*%
X153610010Y-113500010D02*
X153610010Y-111700010D01*
X150390010Y-111700010D02*
X150390010Y-114150010D01*
D14*
X150200010Y-114500010D02*
X150200010Y-110700010D01*
X150200010Y-110700010D02*
X153800010Y-110700010D01*
X153800010Y-110700010D02*
X153800010Y-114500010D01*
X153800010Y-114500010D02*
X150200010Y-114500010D01*
D12*
X151100010Y-113500010D02*
X150450010Y-112850010D01*
X150450010Y-111700010D02*
X150450010Y-112850010D01*
X151100010Y-113500010D02*
X153550010Y-113500010D01*
X153550010Y-111700010D02*
X153550010Y-113500010D01*
X150450010Y-111700010D02*
X153550010Y-111700010D01*
D13*
%TO.C,U2*%
X145545010Y-111161010D02*
X147345010Y-111161010D01*
X147345010Y-107941010D02*
X144895010Y-107941010D01*
D14*
X144545010Y-107751010D02*
X148345010Y-107751010D01*
X148345010Y-107751010D02*
X148345010Y-111351010D01*
X148345010Y-111351010D02*
X144545010Y-111351010D01*
X144545010Y-111351010D02*
X144545010Y-107751010D01*
D12*
X145545010Y-108651010D02*
X146195010Y-108001010D01*
X147345010Y-108001010D02*
X146195010Y-108001010D01*
X145545010Y-108651010D02*
X145545010Y-111101010D01*
X147345010Y-111101010D02*
X145545010Y-111101010D01*
X147345010Y-108001010D02*
X147345010Y-111101010D01*
%TD*%
M02*
