M48
; DRILL file {KiCad (5.1.10-1-10_14)} date Sunday, September 26, 2021 at 08:25:10 PM
; FORMAT={-:-/ absolute / inch / decimal}
; #@! TF.CreationDate,2021-09-26T20:25:10-05:00
; #@! TF.GenerationSoftware,Kicad,Pcbnew,(5.1.10-1-10_14)
; #@! TF.FileFunction,NonPlated,1,2,NPTH
FMAT,2
INCH
T1C0.0256
T2C0.0354
T3C0.0669
T4C0.1339
%
G90
G05
T1
X5.7819Y-2.7504
X6.0094Y-2.7504
T2
X6.0642Y-4.6299
X6.0642Y-4.748
T3
X1.3995Y-4.4083
X1.4811Y-3.744
X1.5626Y-3.0797
X1.8293Y-4.4611
X1.9109Y-3.7968
X1.9925Y-3.1325
X2.1233Y-4.3286
X2.2048Y-3.6643
X2.2864Y-3.0
X2.5531Y-4.3814
X2.6347Y-3.717
X2.7162Y-3.0527
X2.7451Y-5.0792
X2.847Y-4.2489
X2.9286Y-3.5846
X3.0102Y-2.9203
X3.1749Y-5.132
X3.2769Y-4.3016
X3.3584Y-3.6373
X3.44Y-2.973
X3.53Y-4.5013
X3.6116Y-3.837
X3.6932Y-3.1727
X3.8001Y-5.2088
X3.9599Y-4.5541
X4.0414Y-3.8898
X4.123Y-3.2255
X4.23Y-5.2616
X4.2334Y-4.5877
X4.315Y-3.9234
X4.3965Y-3.2591
X4.6632Y-4.6404
X4.7448Y-3.9761
X4.8264Y-3.3118
X6.9718Y-3.3148
X7.0534Y-3.9792
X7.135Y-4.6435
X7.4017Y-3.2621
X7.4832Y-3.9264
X7.5648Y-4.5907
X7.5682Y-5.2646
X7.6752Y-3.2285
X7.7568Y-3.8928
X7.8383Y-4.5571
X7.9981Y-5.2118
X8.1051Y-3.1757
X8.1866Y-3.84
X8.2682Y-4.5043
X8.3582Y-2.976
X8.4398Y-3.6403
X8.5213Y-4.3046
X8.6233Y-5.135
X8.788Y-2.9233
X8.8696Y-3.5876
X8.9512Y-4.2519
X9.0531Y-5.0823
X9.082Y-3.0558
X9.1635Y-3.7201
X9.2451Y-4.3844
X9.5118Y-3.003
X9.5934Y-3.6673
X9.6749Y-4.3316
X9.8057Y-3.1355
X9.8873Y-3.7998
X9.9689Y-4.4641
X10.2356Y-3.0827
X10.3172Y-3.747
X10.3987Y-4.4113
T4
X1.6144Y-4.4347
X1.696Y-3.7704
X1.7775Y-3.1061
X2.3382Y-4.355
X2.4197Y-3.6907
X2.5013Y-3.0264
X2.96Y-5.1056
X3.062Y-4.2753
X3.1435Y-3.6109
X3.2251Y-2.9466
X3.7449Y-4.5277
X3.8265Y-3.8634
X3.9081Y-3.1991
X4.0151Y-5.2352
X4.4483Y-4.6141
X4.5299Y-3.9498
X4.6115Y-3.2854
X7.1868Y-3.2885
X7.2683Y-3.9528
X7.3499Y-4.6171
X7.7831Y-5.2382
X7.8901Y-3.2021
X7.9717Y-3.8664
X8.0533Y-4.5307
X8.5731Y-2.9497
X8.6547Y-3.614
X8.7363Y-4.2783
X8.8382Y-5.1086
X9.2969Y-3.0294
X9.3785Y-3.6937
X9.46Y-4.358
X10.0207Y-3.1091
X10.1022Y-3.7734
X10.1838Y-4.4377
T0
M30
