%TF.GenerationSoftware,KiCad,Pcbnew,(5.1.10-1-10_14)*%
%TF.CreationDate,2021-09-26T20:25:07-05:00*%
%TF.ProjectId,LeChiffreBLE_Single_Side,4c654368-6966-4667-9265-424c455f5369,rev?*%
%TF.SameCoordinates,Original*%
%TF.FileFunction,Soldermask,Bot*%
%TF.FilePolarity,Negative*%
%FSLAX46Y46*%
G04 Gerber Fmt 4.6, Leading zero omitted, Abs format (unit mm)*
G04 Created by KiCad (PCBNEW (5.1.10-1-10_14)) date 2021-09-26 20:25:07*
%MOMM*%
%LPD*%
G01*
G04 APERTURE LIST*
%TA.AperFunction,Profile*%
%ADD10C,0.152000*%
%TD*%
%TA.AperFunction,Profile*%
%ADD11C,0.100000*%
%TD*%
%ADD12C,0.900000*%
%ADD13O,1.700000X1.700000*%
%ADD14R,1.700000X1.700000*%
%ADD15C,2.300000*%
%ADD16C,1.700000*%
%ADD17C,2.000000*%
%ADD18C,3.400000*%
%ADD19O,1.000000X2.100000*%
%ADD20C,0.650000*%
%ADD21O,1.000000X1.600000*%
G04 APERTURE END LIST*
D10*
X30724319Y-129889391D02*
X109245812Y-152889284D01*
X190227091Y-152889420D02*
X268787470Y-129887957D01*
X190227090Y-152889421D02*
G75*
G02*
X189043077Y-153059189I-1184013J4043940D01*
G01*
X110430291Y-153059189D02*
G75*
G02*
X109245812Y-152889284I0J4213708D01*
G01*
X110430291Y-153059189D02*
X189043077Y-153059189D01*
X34872010Y-67071010D02*
G75*
G02*
X39054379Y-63370255I4182369J-512953D01*
G01*
X149754177Y-63370255D02*
X39054379Y-63370255D01*
X260454219Y-63370255D02*
X149754177Y-63370255D01*
X260454219Y-63370255D02*
G75*
G02*
X264636555Y-67070738I0J-4213708D01*
G01*
X271785793Y-125330793D02*
X264636555Y-67070738D01*
X271785792Y-125330793D02*
G75*
G02*
X268787470Y-129887957I-4182335J-513225D01*
G01*
X30724319Y-129889391D02*
G75*
G02*
X27726429Y-125332635I1184479J4043803D01*
G01*
X34872010Y-67071010D02*
X27726429Y-125332635D01*
D11*
X151416666Y-84985000D02*
G75*
G03*
X151416666Y-84985000I-1666666J0D01*
G01*
X147250000Y-84985000D02*
X152250000Y-84985000D01*
X149750000Y-82485000D02*
X149750000Y-87485000D01*
D12*
%TO.C,SW1*%
X154030010Y-117600010D03*
X154030010Y-120600010D03*
%TD*%
D13*
%TO.C,J102*%
X149780010Y-97015010D03*
X149780010Y-94475010D03*
X149780010Y-91935010D03*
D14*
X149780010Y-89395010D03*
%TD*%
D15*
%TO.C,BT1*%
X160150000Y-139090000D03*
X160150000Y-142190000D03*
X139350000Y-142190000D03*
X139350000Y-139090000D03*
%TD*%
D13*
%TO.C,J101*%
X145930000Y-125440000D03*
X148470000Y-125440000D03*
X151010000Y-125440000D03*
D14*
X153550000Y-125440000D03*
%TD*%
D16*
%TO.C,MX1*%
X50608622Y-79564418D03*
X39690614Y-78223856D03*
D17*
X39723784Y-82056466D03*
X44430589Y-84750159D03*
D18*
X45149618Y-78894137D03*
%TD*%
D19*
%TO.C,J1*%
X145430000Y-70390000D03*
X154070000Y-70390000D03*
D20*
X152640000Y-69860000D03*
D21*
X154070000Y-66210000D03*
D20*
X146860000Y-69860000D03*
D21*
X145430000Y-66210000D03*
%TD*%
D18*
%TO.C,MX34*%
X258668418Y-112717175D03*
D17*
X259387447Y-118573197D03*
X254168791Y-117098197D03*
D16*
X253209414Y-113387456D03*
X264127422Y-112046894D03*
%TD*%
D18*
%TO.C,MX33*%
X256596640Y-95843890D03*
D17*
X257315669Y-101699912D03*
X252097013Y-100224912D03*
D16*
X251137636Y-96514171D03*
X262055644Y-95173609D03*
%TD*%
D18*
%TO.C,MX32*%
X254524861Y-78970606D03*
D17*
X255243890Y-84826628D03*
X250025234Y-83351628D03*
D16*
X249065857Y-79640887D03*
X259983865Y-78300325D03*
%TD*%
D18*
%TO.C,MX31*%
X240284643Y-110692502D03*
D17*
X241003672Y-116548524D03*
X235785016Y-115073524D03*
D16*
X234825639Y-111362783D03*
X245743647Y-110022221D03*
%TD*%
D18*
%TO.C,MX30*%
X238212864Y-93819217D03*
D17*
X238931893Y-99675239D03*
X233713237Y-98200239D03*
D16*
X232753860Y-94489498D03*
X243671868Y-93148936D03*
%TD*%
D18*
%TO.C,MX29*%
X236141085Y-76945933D03*
D17*
X236860114Y-82801955D03*
X231641458Y-81326955D03*
D16*
X230682081Y-77616214D03*
X241600089Y-76275652D03*
%TD*%
D18*
%TO.C,MX28*%
X221900868Y-108667829D03*
D17*
X222619897Y-114523851D03*
X217401241Y-113048851D03*
D16*
X216441864Y-109338110D03*
X227359872Y-107997548D03*
%TD*%
D18*
%TO.C,MX27*%
X219829089Y-91794544D03*
D17*
X220548118Y-97650566D03*
X215329462Y-96175566D03*
D16*
X214370085Y-92464825D03*
X225288093Y-91124263D03*
%TD*%
D18*
%TO.C,MX26*%
X217757310Y-74921260D03*
D17*
X218476339Y-80777282D03*
X213257683Y-79302282D03*
D16*
X212298306Y-75591541D03*
X223216314Y-74250979D03*
%TD*%
D18*
%TO.C,MX25*%
X224490591Y-129759435D03*
D17*
X225209620Y-135615457D03*
X219990964Y-134140457D03*
D16*
X219031587Y-130429716D03*
X229949595Y-129089154D03*
%TD*%
D18*
%TO.C,MX24*%
X204552982Y-115079798D03*
D17*
X205272011Y-120935820D03*
X200053355Y-119460820D03*
D16*
X199093978Y-115750079D03*
X210011986Y-114409517D03*
%TD*%
D18*
%TO.C,MX23*%
X202481203Y-98206514D03*
D17*
X203200232Y-104062536D03*
X197981576Y-102587536D03*
D16*
X197022199Y-98876795D03*
X207940207Y-97536233D03*
%TD*%
D18*
%TO.C,MX22*%
X200409424Y-81333229D03*
D17*
X201128453Y-87189251D03*
X195909797Y-85714251D03*
D16*
X194950420Y-82003510D03*
X205868428Y-80662948D03*
%TD*%
D18*
%TO.C,MX21*%
X197691845Y-133049907D03*
D17*
X198410874Y-138905929D03*
X193192218Y-137430929D03*
D16*
X192232841Y-133720188D03*
X203150849Y-132379626D03*
%TD*%
D18*
%TO.C,MX20*%
X186687151Y-117273447D03*
D17*
X187406180Y-123129469D03*
X182187524Y-121654469D03*
D16*
X181228147Y-117943728D03*
X192146155Y-116603166D03*
%TD*%
D18*
%TO.C,MX19*%
X184615372Y-100400162D03*
D17*
X185334401Y-106256184D03*
X180115745Y-104781184D03*
D16*
X179156368Y-101070443D03*
X190074376Y-99729881D03*
%TD*%
D18*
%TO.C,MX18*%
X182543593Y-83526877D03*
D17*
X183262622Y-89382899D03*
X178043966Y-87907899D03*
D16*
X177084589Y-84197158D03*
X188002597Y-82856596D03*
%TD*%
%TO.C,MX17*%
X107441637Y-133643719D03*
X96523629Y-132303157D03*
D17*
X96556799Y-136135767D03*
X101263604Y-138829460D03*
D18*
X101982633Y-132973438D03*
%TD*%
D16*
%TO.C,MX16*%
X118446331Y-117867259D03*
X107528323Y-116526697D03*
D17*
X107561493Y-120359307D03*
X112268298Y-123053000D03*
D18*
X112987327Y-117196978D03*
%TD*%
D16*
%TO.C,MX15*%
X120518110Y-100993974D03*
X109600102Y-99653412D03*
D17*
X109633272Y-103486022D03*
X114340077Y-106179715D03*
D18*
X115059106Y-100323693D03*
%TD*%
D16*
%TO.C,MX14*%
X122589889Y-84120689D03*
X111671881Y-82780127D03*
D17*
X111705051Y-86612737D03*
X116411856Y-89306430D03*
D18*
X117130885Y-83450408D03*
%TD*%
D16*
%TO.C,MX13*%
X80642891Y-130353247D03*
X69724883Y-129012685D03*
D17*
X69758053Y-132845295D03*
X74464858Y-135538988D03*
D18*
X75183887Y-129682966D03*
%TD*%
D16*
%TO.C,MX12*%
X100580501Y-115673610D03*
X89662493Y-114333048D03*
D17*
X89695663Y-118165658D03*
X94402468Y-120859351D03*
D18*
X95121497Y-115003329D03*
%TD*%
D16*
%TO.C,MX11*%
X102652280Y-98800326D03*
X91734272Y-97459764D03*
D17*
X91767442Y-101292374D03*
X96474247Y-103986067D03*
D18*
X97193276Y-98130045D03*
%TD*%
D16*
%TO.C,MX10*%
X104724058Y-81927041D03*
X93806050Y-80586479D03*
D17*
X93839220Y-84419089D03*
X98546025Y-87112782D03*
D18*
X99265054Y-81256760D03*
%TD*%
D16*
%TO.C,MX9*%
X83232615Y-109261641D03*
X72314607Y-107921079D03*
D17*
X72347777Y-111753689D03*
X77054582Y-114447382D03*
D18*
X77773611Y-108591360D03*
%TD*%
D16*
%TO.C,MX8*%
X85304394Y-92388356D03*
X74386386Y-91047794D03*
D17*
X74419556Y-94880404D03*
X79126361Y-97574097D03*
D18*
X79845390Y-91718075D03*
%TD*%
D16*
%TO.C,MX7*%
X87376172Y-75515072D03*
X76458164Y-74174510D03*
D17*
X76491334Y-78007120D03*
X81198139Y-80700813D03*
D18*
X81917168Y-74844791D03*
%TD*%
D16*
%TO.C,MX6*%
X64848839Y-111286314D03*
X53930831Y-109945752D03*
D17*
X53964001Y-113778362D03*
X58670806Y-116472055D03*
D18*
X59389835Y-110616033D03*
%TD*%
D16*
%TO.C,MX5*%
X66920618Y-94413029D03*
X56002610Y-93072467D03*
D17*
X56035780Y-96905077D03*
X60742585Y-99598770D03*
D18*
X61461614Y-93742748D03*
%TD*%
D16*
%TO.C,MX4*%
X68992397Y-77539745D03*
X58074389Y-76199183D03*
D17*
X58107559Y-80031793D03*
X62814364Y-82725486D03*
D18*
X63533393Y-76869464D03*
%TD*%
D16*
%TO.C,MX3*%
X46465064Y-113310987D03*
X35547056Y-111970425D03*
D17*
X35580226Y-115803035D03*
X40287031Y-118496728D03*
D18*
X41006060Y-112640706D03*
%TD*%
D16*
%TO.C,MX2*%
X48536843Y-96437702D03*
X37618835Y-95097140D03*
D17*
X37652005Y-98929750D03*
X42358810Y-101623443D03*
D18*
X43077839Y-95767421D03*
%TD*%
M02*
