%TF.GenerationSoftware,KiCad,Pcbnew,(5.1.10-1-10_14)*%
%TF.CreationDate,2021-09-26T20:25:07-05:00*%
%TF.ProjectId,LeChiffreBLE_Single_Side,4c654368-6966-4667-9265-424c455f5369,rev?*%
%TF.SameCoordinates,Original*%
%TF.FileFunction,Paste,Top*%
%TF.FilePolarity,Positive*%
%FSLAX46Y46*%
G04 Gerber Fmt 4.6, Leading zero omitted, Abs format (unit mm)*
G04 Created by KiCad (PCBNEW (5.1.10-1-10_14)) date 2021-09-26 20:25:07*
%MOMM*%
%LPD*%
G01*
G04 APERTURE LIST*
%TA.AperFunction,Profile*%
%ADD10C,0.152000*%
%TD*%
%TA.AperFunction,Profile*%
%ADD11C,0.100000*%
%TD*%
%ADD12R,0.800000X0.900000*%
%ADD13R,0.900000X0.800000*%
%ADD14R,0.800000X1.000000*%
%ADD15R,1.500000X0.700000*%
%ADD16R,1.000000X0.800000*%
%ADD17O,0.850000X1.700000*%
%ADD18O,1.700000X0.850000*%
%ADD19R,1.700000X1.000000*%
%ADD20R,1.200000X0.900000*%
%ADD21R,0.600000X1.450000*%
%ADD22R,0.300000X1.450000*%
%ADD23C,0.100000*%
%ADD24R,0.650000X1.060000*%
%ADD25R,1.060000X0.650000*%
G04 APERTURE END LIST*
D10*
X30724319Y-129889391D02*
X109245812Y-152889284D01*
X190227091Y-152889420D02*
X268787470Y-129887957D01*
X190227090Y-152889421D02*
G75*
G02*
X189043077Y-153059189I-1184013J4043940D01*
G01*
X110430291Y-153059189D02*
G75*
G02*
X109245812Y-152889284I0J4213708D01*
G01*
X110430291Y-153059189D02*
X189043077Y-153059189D01*
X34872010Y-67071010D02*
G75*
G02*
X39054379Y-63370255I4182369J-512953D01*
G01*
X149754177Y-63370255D02*
X39054379Y-63370255D01*
X260454219Y-63370255D02*
X149754177Y-63370255D01*
X260454219Y-63370255D02*
G75*
G02*
X264636555Y-67070738I0J-4213708D01*
G01*
X271785793Y-125330793D02*
X264636555Y-67070738D01*
X271785792Y-125330793D02*
G75*
G02*
X268787470Y-129887957I-4182335J-513225D01*
G01*
X30724319Y-129889391D02*
G75*
G02*
X27726429Y-125332635I1184479J4043803D01*
G01*
X34872010Y-67071010D02*
X27726429Y-125332635D01*
D11*
X151416666Y-84985000D02*
G75*
G03*
X151416666Y-84985000I-1666666J0D01*
G01*
X147250000Y-84985000D02*
X152250000Y-84985000D01*
X149750000Y-82485000D02*
X149750000Y-87485000D01*
D12*
%TO.C,Q1*%
X146350010Y-114140010D03*
X145400010Y-112140010D03*
X147300010Y-112140010D03*
%TD*%
D13*
%TO.C,Q2*%
X149740010Y-105490010D03*
X147740010Y-106440010D03*
X147740010Y-104540010D03*
%TD*%
%TO.C,R5*%
G36*
G01*
X148093760Y-122237510D02*
X148606260Y-122237510D01*
G75*
G02*
X148825010Y-122456260I0J-218750D01*
G01*
X148825010Y-122893760D01*
G75*
G02*
X148606260Y-123112510I-218750J0D01*
G01*
X148093760Y-123112510D01*
G75*
G02*
X147875010Y-122893760I0J218750D01*
G01*
X147875010Y-122456260D01*
G75*
G02*
X148093760Y-122237510I218750J0D01*
G01*
G37*
G36*
G01*
X148093760Y-120662510D02*
X148606260Y-120662510D01*
G75*
G02*
X148825010Y-120881260I0J-218750D01*
G01*
X148825010Y-121318760D01*
G75*
G02*
X148606260Y-121537510I-218750J0D01*
G01*
X148093760Y-121537510D01*
G75*
G02*
X147875010Y-121318760I0J218750D01*
G01*
X147875010Y-120881260D01*
G75*
G02*
X148093760Y-120662510I218750J0D01*
G01*
G37*
%TD*%
%TO.C,R6*%
G36*
G01*
X145621760Y-122287510D02*
X146134260Y-122287510D01*
G75*
G02*
X146353010Y-122506260I0J-218750D01*
G01*
X146353010Y-122943760D01*
G75*
G02*
X146134260Y-123162510I-218750J0D01*
G01*
X145621760Y-123162510D01*
G75*
G02*
X145403010Y-122943760I0J218750D01*
G01*
X145403010Y-122506260D01*
G75*
G02*
X145621760Y-122287510I218750J0D01*
G01*
G37*
G36*
G01*
X145621760Y-120712510D02*
X146134260Y-120712510D01*
G75*
G02*
X146353010Y-120931260I0J-218750D01*
G01*
X146353010Y-121368760D01*
G75*
G02*
X146134260Y-121587510I-218750J0D01*
G01*
X145621760Y-121587510D01*
G75*
G02*
X145403010Y-121368760I0J218750D01*
G01*
X145403010Y-120931260D01*
G75*
G02*
X145621760Y-120712510I218750J0D01*
G01*
G37*
%TD*%
D14*
%TO.C,SW1*%
X152920010Y-122750010D03*
X152920010Y-115450010D03*
X155130010Y-115450010D03*
X155130010Y-122750010D03*
D15*
X152270010Y-116850010D03*
X152270010Y-118350010D03*
X152270010Y-121350010D03*
%TD*%
%TO.C,C3*%
G36*
G01*
X145226760Y-106157010D02*
X145739260Y-106157010D01*
G75*
G02*
X145958010Y-106375760I0J-218750D01*
G01*
X145958010Y-106813260D01*
G75*
G02*
X145739260Y-107032010I-218750J0D01*
G01*
X145226760Y-107032010D01*
G75*
G02*
X145008010Y-106813260I0J218750D01*
G01*
X145008010Y-106375760D01*
G75*
G02*
X145226760Y-106157010I218750J0D01*
G01*
G37*
G36*
G01*
X145226760Y-104582010D02*
X145739260Y-104582010D01*
G75*
G02*
X145958010Y-104800760I0J-218750D01*
G01*
X145958010Y-105238260D01*
G75*
G02*
X145739260Y-105457010I-218750J0D01*
G01*
X145226760Y-105457010D01*
G75*
G02*
X145008010Y-105238260I0J218750D01*
G01*
X145008010Y-104800760D01*
G75*
G02*
X145226760Y-104582010I218750J0D01*
G01*
G37*
%TD*%
D16*
%TO.C,U101*%
X154000000Y-97670000D03*
X154000000Y-96570000D03*
X154000000Y-95470000D03*
X154000000Y-94370000D03*
X154000000Y-93270000D03*
X154000000Y-92170000D03*
X154000000Y-91070000D03*
X154000000Y-89970000D03*
X154000000Y-88870000D03*
X145500000Y-88870000D03*
X145500000Y-89970000D03*
X145500000Y-91070000D03*
X145500000Y-92170000D03*
X145500000Y-93270000D03*
X145500000Y-94370000D03*
X145500000Y-95470000D03*
X145500000Y-96570000D03*
X145500000Y-97670000D03*
D17*
X144250000Y-101370000D03*
X145350000Y-101370000D03*
X146450000Y-101370000D03*
X147550000Y-101370000D03*
X148650000Y-101370000D03*
X149750000Y-101370000D03*
X150850000Y-101370000D03*
X151950000Y-101370000D03*
X153050000Y-101370000D03*
X154150000Y-101370000D03*
X155250000Y-101370000D03*
D18*
X156500000Y-99870000D03*
X156500000Y-98770000D03*
X156500000Y-97670000D03*
X156500000Y-96570000D03*
X156500000Y-95470000D03*
X156500000Y-94370000D03*
X156500000Y-93270000D03*
X156500000Y-92170000D03*
X156500000Y-91070000D03*
X156500000Y-89970000D03*
X156500000Y-88870000D03*
X156500000Y-87770000D03*
X156500000Y-86670000D03*
X143000000Y-99870000D03*
X143000000Y-98770000D03*
X143000000Y-97670000D03*
X143000000Y-96570000D03*
X143000000Y-95470000D03*
X143000000Y-94370000D03*
X143000000Y-93270000D03*
X143000000Y-92170000D03*
X143000000Y-91070000D03*
X143000000Y-89970000D03*
X143000000Y-88870000D03*
X143000000Y-87770000D03*
X143000000Y-86670000D03*
%TD*%
D19*
%TO.C,SW2*%
X152900000Y-80200000D03*
X146600000Y-80200000D03*
X152900000Y-76400000D03*
X146600000Y-76400000D03*
%TD*%
%TO.C,R103*%
G36*
G01*
X151068010Y-105786010D02*
X151618010Y-105786010D01*
G75*
G02*
X151818010Y-105986010I0J-200000D01*
G01*
X151818010Y-106386010D01*
G75*
G02*
X151618010Y-106586010I-200000J0D01*
G01*
X151068010Y-106586010D01*
G75*
G02*
X150868010Y-106386010I0J200000D01*
G01*
X150868010Y-105986010D01*
G75*
G02*
X151068010Y-105786010I200000J0D01*
G01*
G37*
G36*
G01*
X151068010Y-104136010D02*
X151618010Y-104136010D01*
G75*
G02*
X151818010Y-104336010I0J-200000D01*
G01*
X151818010Y-104736010D01*
G75*
G02*
X151618010Y-104936010I-200000J0D01*
G01*
X151068010Y-104936010D01*
G75*
G02*
X150868010Y-104736010I0J200000D01*
G01*
X150868010Y-104336010D01*
G75*
G02*
X151068010Y-104136010I200000J0D01*
G01*
G37*
%TD*%
%TO.C,R102*%
G36*
G01*
X145758010Y-117677010D02*
X145758010Y-118227010D01*
G75*
G02*
X145558010Y-118427010I-200000J0D01*
G01*
X145158010Y-118427010D01*
G75*
G02*
X144958010Y-118227010I0J200000D01*
G01*
X144958010Y-117677010D01*
G75*
G02*
X145158010Y-117477010I200000J0D01*
G01*
X145558010Y-117477010D01*
G75*
G02*
X145758010Y-117677010I0J-200000D01*
G01*
G37*
G36*
G01*
X147408010Y-117677010D02*
X147408010Y-118227010D01*
G75*
G02*
X147208010Y-118427010I-200000J0D01*
G01*
X146808010Y-118427010D01*
G75*
G02*
X146608010Y-118227010I0J200000D01*
G01*
X146608010Y-117677010D01*
G75*
G02*
X146808010Y-117477010I200000J0D01*
G01*
X147208010Y-117477010D01*
G75*
G02*
X147408010Y-117677010I0J-200000D01*
G01*
G37*
%TD*%
%TO.C,R101*%
G36*
G01*
X146592010Y-116432010D02*
X146592010Y-115882010D01*
G75*
G02*
X146792010Y-115682010I200000J0D01*
G01*
X147192010Y-115682010D01*
G75*
G02*
X147392010Y-115882010I0J-200000D01*
G01*
X147392010Y-116432010D01*
G75*
G02*
X147192010Y-116632010I-200000J0D01*
G01*
X146792010Y-116632010D01*
G75*
G02*
X146592010Y-116432010I0J200000D01*
G01*
G37*
G36*
G01*
X144942010Y-116432010D02*
X144942010Y-115882010D01*
G75*
G02*
X145142010Y-115682010I200000J0D01*
G01*
X145542010Y-115682010D01*
G75*
G02*
X145742010Y-115882010I0J-200000D01*
G01*
X145742010Y-116432010D01*
G75*
G02*
X145542010Y-116632010I-200000J0D01*
G01*
X145142010Y-116632010D01*
G75*
G02*
X144942010Y-116432010I0J200000D01*
G01*
G37*
%TD*%
D20*
%TO.C,D35*%
X153868010Y-106105010D03*
X153868010Y-109405010D03*
%TD*%
D21*
%TO.C,J1*%
X146500000Y-71305000D03*
X147300000Y-71305000D03*
X152200000Y-71305000D03*
X153000000Y-71305000D03*
X153000000Y-71305000D03*
X152200000Y-71305000D03*
X147300000Y-71305000D03*
X146500000Y-71305000D03*
D22*
X151500000Y-71305000D03*
X151000000Y-71305000D03*
X150500000Y-71305000D03*
X149500000Y-71305000D03*
X149000000Y-71305000D03*
X148500000Y-71305000D03*
X148000000Y-71305000D03*
X150000000Y-71305000D03*
%TD*%
%TO.C,R8*%
G36*
G01*
X154956260Y-112050010D02*
X154443760Y-112050010D01*
G75*
G02*
X154225010Y-111831260I0J218750D01*
G01*
X154225010Y-111393760D01*
G75*
G02*
X154443760Y-111175010I218750J0D01*
G01*
X154956260Y-111175010D01*
G75*
G02*
X155175010Y-111393760I0J-218750D01*
G01*
X155175010Y-111831260D01*
G75*
G02*
X154956260Y-112050010I-218750J0D01*
G01*
G37*
G36*
G01*
X154956260Y-113625010D02*
X154443760Y-113625010D01*
G75*
G02*
X154225010Y-113406260I0J218750D01*
G01*
X154225010Y-112968760D01*
G75*
G02*
X154443760Y-112750010I218750J0D01*
G01*
X154956260Y-112750010D01*
G75*
G02*
X155175010Y-112968760I0J-218750D01*
G01*
X155175010Y-113406260D01*
G75*
G02*
X154956260Y-113625010I-218750J0D01*
G01*
G37*
%TD*%
%TO.C,R7*%
G36*
G01*
X149556260Y-114550010D02*
X149043760Y-114550010D01*
G75*
G02*
X148825010Y-114331260I0J218750D01*
G01*
X148825010Y-113893760D01*
G75*
G02*
X149043760Y-113675010I218750J0D01*
G01*
X149556260Y-113675010D01*
G75*
G02*
X149775010Y-113893760I0J-218750D01*
G01*
X149775010Y-114331260D01*
G75*
G02*
X149556260Y-114550010I-218750J0D01*
G01*
G37*
G36*
G01*
X149556260Y-116125010D02*
X149043760Y-116125010D01*
G75*
G02*
X148825010Y-115906260I0J218750D01*
G01*
X148825010Y-115468760D01*
G75*
G02*
X149043760Y-115250010I218750J0D01*
G01*
X149556260Y-115250010D01*
G75*
G02*
X149775010Y-115468760I0J-218750D01*
G01*
X149775010Y-115906260D01*
G75*
G02*
X149556260Y-116125010I-218750J0D01*
G01*
G37*
%TD*%
%TO.C,R4*%
G36*
G01*
X154207510Y-104761260D02*
X154207510Y-104248760D01*
G75*
G02*
X154426260Y-104030010I218750J0D01*
G01*
X154863760Y-104030010D01*
G75*
G02*
X155082510Y-104248760I0J-218750D01*
G01*
X155082510Y-104761260D01*
G75*
G02*
X154863760Y-104980010I-218750J0D01*
G01*
X154426260Y-104980010D01*
G75*
G02*
X154207510Y-104761260I0J218750D01*
G01*
G37*
G36*
G01*
X152632510Y-104761260D02*
X152632510Y-104248760D01*
G75*
G02*
X152851260Y-104030010I218750J0D01*
G01*
X153288760Y-104030010D01*
G75*
G02*
X153507510Y-104248760I0J-218750D01*
G01*
X153507510Y-104761260D01*
G75*
G02*
X153288760Y-104980010I-218750J0D01*
G01*
X152851260Y-104980010D01*
G75*
G02*
X152632510Y-104761260I0J218750D01*
G01*
G37*
%TD*%
%TO.C,R3*%
G36*
G01*
X158064260Y-70318010D02*
X157551760Y-70318010D01*
G75*
G02*
X157333010Y-70099260I0J218750D01*
G01*
X157333010Y-69661760D01*
G75*
G02*
X157551760Y-69443010I218750J0D01*
G01*
X158064260Y-69443010D01*
G75*
G02*
X158283010Y-69661760I0J-218750D01*
G01*
X158283010Y-70099260D01*
G75*
G02*
X158064260Y-70318010I-218750J0D01*
G01*
G37*
G36*
G01*
X158064260Y-71893010D02*
X157551760Y-71893010D01*
G75*
G02*
X157333010Y-71674260I0J218750D01*
G01*
X157333010Y-71236760D01*
G75*
G02*
X157551760Y-71018010I218750J0D01*
G01*
X158064260Y-71018010D01*
G75*
G02*
X158283010Y-71236760I0J-218750D01*
G01*
X158283010Y-71674260D01*
G75*
G02*
X158064260Y-71893010I-218750J0D01*
G01*
G37*
%TD*%
%TO.C,R2*%
G36*
G01*
X143198760Y-71018010D02*
X143711260Y-71018010D01*
G75*
G02*
X143930010Y-71236760I0J-218750D01*
G01*
X143930010Y-71674260D01*
G75*
G02*
X143711260Y-71893010I-218750J0D01*
G01*
X143198760Y-71893010D01*
G75*
G02*
X142980010Y-71674260I0J218750D01*
G01*
X142980010Y-71236760D01*
G75*
G02*
X143198760Y-71018010I218750J0D01*
G01*
G37*
G36*
G01*
X143198760Y-69443010D02*
X143711260Y-69443010D01*
G75*
G02*
X143930010Y-69661760I0J-218750D01*
G01*
X143930010Y-70099260D01*
G75*
G02*
X143711260Y-70318010I-218750J0D01*
G01*
X143198760Y-70318010D01*
G75*
G02*
X142980010Y-70099260I0J218750D01*
G01*
X142980010Y-69661760D01*
G75*
G02*
X143198760Y-69443010I218750J0D01*
G01*
G37*
%TD*%
%TO.C,R1*%
G36*
G01*
X141491760Y-71018010D02*
X142004260Y-71018010D01*
G75*
G02*
X142223010Y-71236760I0J-218750D01*
G01*
X142223010Y-71674260D01*
G75*
G02*
X142004260Y-71893010I-218750J0D01*
G01*
X141491760Y-71893010D01*
G75*
G02*
X141273010Y-71674260I0J218750D01*
G01*
X141273010Y-71236760D01*
G75*
G02*
X141491760Y-71018010I218750J0D01*
G01*
G37*
G36*
G01*
X141491760Y-69443010D02*
X142004260Y-69443010D01*
G75*
G02*
X142223010Y-69661760I0J-218750D01*
G01*
X142223010Y-70099260D01*
G75*
G02*
X142004260Y-70318010I-218750J0D01*
G01*
X141491760Y-70318010D01*
G75*
G02*
X141273010Y-70099260I0J218750D01*
G01*
X141273010Y-69661760D01*
G75*
G02*
X141491760Y-69443010I218750J0D01*
G01*
G37*
%TD*%
%TO.C,D36*%
G36*
G01*
X149456260Y-111450010D02*
X148943760Y-111450010D01*
G75*
G02*
X148725010Y-111231260I0J218750D01*
G01*
X148725010Y-110793760D01*
G75*
G02*
X148943760Y-110575010I218750J0D01*
G01*
X149456260Y-110575010D01*
G75*
G02*
X149675010Y-110793760I0J-218750D01*
G01*
X149675010Y-111231260D01*
G75*
G02*
X149456260Y-111450010I-218750J0D01*
G01*
G37*
G36*
G01*
X149456260Y-113025010D02*
X148943760Y-113025010D01*
G75*
G02*
X148725010Y-112806260I0J218750D01*
G01*
X148725010Y-112368760D01*
G75*
G02*
X148943760Y-112150010I218750J0D01*
G01*
X149456260Y-112150010D01*
G75*
G02*
X149675010Y-112368760I0J-218750D01*
G01*
X149675010Y-112806260D01*
G75*
G02*
X149456260Y-113025010I-218750J0D01*
G01*
G37*
%TD*%
D23*
%TO.C,D34*%
G36*
X166569615Y-124514129D02*
G01*
X167760670Y-124367886D01*
X167870353Y-125261177D01*
X166679298Y-125407420D01*
X166569615Y-124514129D01*
G37*
G36*
X166971783Y-127789531D02*
G01*
X168162838Y-127643288D01*
X168272521Y-128536579D01*
X167081466Y-128682822D01*
X166971783Y-127789531D01*
G37*
%TD*%
%TO.C,D33*%
G36*
X164497836Y-107640844D02*
G01*
X165688891Y-107494601D01*
X165798574Y-108387892D01*
X164607519Y-108534135D01*
X164497836Y-107640844D01*
G37*
G36*
X164900004Y-110916246D02*
G01*
X166091059Y-110770003D01*
X166200742Y-111663294D01*
X165009687Y-111809537D01*
X164900004Y-110916246D01*
G37*
%TD*%
%TO.C,D32*%
G36*
X162252362Y-90788887D02*
G01*
X163443417Y-90642644D01*
X163553100Y-91535935D01*
X162362045Y-91682178D01*
X162252362Y-90788887D01*
G37*
G36*
X162654530Y-94064289D02*
G01*
X163845585Y-93918046D01*
X163955268Y-94811337D01*
X162764213Y-94957580D01*
X162654530Y-94064289D01*
G37*
%TD*%
%TO.C,D31*%
G36*
X168543872Y-122130762D02*
G01*
X169734927Y-121984519D01*
X169844610Y-122877810D01*
X168653555Y-123024053D01*
X168543872Y-122130762D01*
G37*
G36*
X168946040Y-125406164D02*
G01*
X170137095Y-125259921D01*
X170246778Y-126153212D01*
X169055723Y-126299455D01*
X168946040Y-125406164D01*
G37*
%TD*%
%TO.C,D30*%
G36*
X166472093Y-105257478D02*
G01*
X167663148Y-105111235D01*
X167772831Y-106004526D01*
X166581776Y-106150769D01*
X166472093Y-105257478D01*
G37*
G36*
X166874261Y-108532880D02*
G01*
X168065316Y-108386637D01*
X168174999Y-109279928D01*
X166983944Y-109426171D01*
X166874261Y-108532880D01*
G37*
%TD*%
%TO.C,D29*%
G36*
X164226618Y-88405520D02*
G01*
X165417673Y-88259277D01*
X165527356Y-89152568D01*
X164336301Y-89298811D01*
X164226618Y-88405520D01*
G37*
G36*
X164628786Y-91680922D02*
G01*
X165819841Y-91534679D01*
X165929524Y-92427970D01*
X164738469Y-92574213D01*
X164628786Y-91680922D01*
G37*
%TD*%
%TO.C,D28*%
G36*
X170518128Y-119747396D02*
G01*
X171709183Y-119601153D01*
X171818866Y-120494444D01*
X170627811Y-120640687D01*
X170518128Y-119747396D01*
G37*
G36*
X170920296Y-123022798D02*
G01*
X172111351Y-122876555D01*
X172221034Y-123769846D01*
X171029979Y-123916089D01*
X170920296Y-123022798D01*
G37*
%TD*%
%TO.C,D27*%
G36*
X168446349Y-102874111D02*
G01*
X169637404Y-102727868D01*
X169747087Y-103621159D01*
X168556032Y-103767402D01*
X168446349Y-102874111D01*
G37*
G36*
X168848517Y-106149513D02*
G01*
X170039572Y-106003270D01*
X170149255Y-106896561D01*
X168958200Y-107042804D01*
X168848517Y-106149513D01*
G37*
%TD*%
%TO.C,D26*%
G36*
X166200875Y-86022153D02*
G01*
X167391930Y-85875910D01*
X167501613Y-86769201D01*
X166310558Y-86915444D01*
X166200875Y-86022153D01*
G37*
G36*
X166603043Y-89297555D02*
G01*
X167794098Y-89151312D01*
X167903781Y-90044603D01*
X166712726Y-90190846D01*
X166603043Y-89297555D01*
G37*
%TD*%
%TO.C,D25*%
G36*
X174564163Y-134237314D02*
G01*
X175755218Y-134091071D01*
X175864901Y-134984362D01*
X174673846Y-135130605D01*
X174564163Y-134237314D01*
G37*
G36*
X174966331Y-137512716D02*
G01*
X176157386Y-137366473D01*
X176267069Y-138259764D01*
X175076014Y-138406007D01*
X174966331Y-137512716D01*
G37*
%TD*%
%TO.C,D24*%
G36*
X172492385Y-117364029D02*
G01*
X173683440Y-117217786D01*
X173793123Y-118111077D01*
X172602068Y-118257320D01*
X172492385Y-117364029D01*
G37*
G36*
X172894553Y-120639431D02*
G01*
X174085608Y-120493188D01*
X174195291Y-121386479D01*
X173004236Y-121532722D01*
X172894553Y-120639431D01*
G37*
%TD*%
%TO.C,D23*%
G36*
X170420606Y-100490744D02*
G01*
X171611661Y-100344501D01*
X171721344Y-101237792D01*
X170530289Y-101384035D01*
X170420606Y-100490744D01*
G37*
G36*
X170822774Y-103766146D02*
G01*
X172013829Y-103619903D01*
X172123512Y-104513194D01*
X170932457Y-104659437D01*
X170822774Y-103766146D01*
G37*
%TD*%
%TO.C,D22*%
G36*
X168175131Y-83638787D02*
G01*
X169366186Y-83492544D01*
X169475869Y-84385835D01*
X168284814Y-84532078D01*
X168175131Y-83638787D01*
G37*
G36*
X168577299Y-86914189D02*
G01*
X169768354Y-86767946D01*
X169878037Y-87661237D01*
X168686982Y-87807480D01*
X168577299Y-86914189D01*
G37*
%TD*%
%TO.C,D21*%
G36*
X176538420Y-131853947D02*
G01*
X177729475Y-131707704D01*
X177839158Y-132600995D01*
X176648103Y-132747238D01*
X176538420Y-131853947D01*
G37*
G36*
X176940588Y-135129349D02*
G01*
X178131643Y-134983106D01*
X178241326Y-135876397D01*
X177050271Y-136022640D01*
X176940588Y-135129349D01*
G37*
%TD*%
%TO.C,D20*%
G36*
X174466641Y-114980662D02*
G01*
X175657696Y-114834419D01*
X175767379Y-115727710D01*
X174576324Y-115873953D01*
X174466641Y-114980662D01*
G37*
G36*
X174868809Y-118256064D02*
G01*
X176059864Y-118109821D01*
X176169547Y-119003112D01*
X174978492Y-119149355D01*
X174868809Y-118256064D01*
G37*
%TD*%
%TO.C,D19*%
G36*
X172394862Y-98107378D02*
G01*
X173585917Y-97961135D01*
X173695600Y-98854426D01*
X172504545Y-99000669D01*
X172394862Y-98107378D01*
G37*
G36*
X172797030Y-101382780D02*
G01*
X173988085Y-101236537D01*
X174097768Y-102129828D01*
X172906713Y-102276071D01*
X172797030Y-101382780D01*
G37*
%TD*%
%TO.C,D18*%
G36*
X170213903Y-81247499D02*
G01*
X171404958Y-81101256D01*
X171514641Y-81994547D01*
X170323586Y-82140790D01*
X170213903Y-81247499D01*
G37*
G36*
X170616071Y-84522901D02*
G01*
X171807126Y-84376658D01*
X171916809Y-85269949D01*
X170725754Y-85416192D01*
X170616071Y-84522901D01*
G37*
%TD*%
%TO.C,D17*%
G36*
X121531867Y-134995966D02*
G01*
X122722922Y-135142209D01*
X122613239Y-136035500D01*
X121422184Y-135889257D01*
X121531867Y-134995966D01*
G37*
G36*
X121934035Y-131720564D02*
G01*
X123125090Y-131866807D01*
X123015407Y-132760098D01*
X121824352Y-132613855D01*
X121934035Y-131720564D01*
G37*
%TD*%
%TO.C,D16*%
G36*
X123583795Y-118120244D02*
G01*
X124774850Y-118266487D01*
X124665167Y-119159778D01*
X123474112Y-119013535D01*
X123583795Y-118120244D01*
G37*
G36*
X123985963Y-114844842D02*
G01*
X125177018Y-114991085D01*
X125067335Y-115884376D01*
X123876280Y-115738133D01*
X123985963Y-114844842D01*
G37*
%TD*%
%TO.C,D15*%
G36*
X125675425Y-101249397D02*
G01*
X126866480Y-101395640D01*
X126756797Y-102288931D01*
X125565742Y-102142688D01*
X125675425Y-101249397D01*
G37*
G36*
X126077593Y-97973995D02*
G01*
X127268648Y-98120238D01*
X127158965Y-99013529D01*
X125967910Y-98867286D01*
X126077593Y-97973995D01*
G37*
%TD*%
%TO.C,D14*%
G36*
X127747204Y-84376112D02*
G01*
X128938259Y-84522355D01*
X128828576Y-85415646D01*
X127637521Y-85269403D01*
X127747204Y-84376112D01*
G37*
G36*
X128149372Y-81100710D02*
G01*
X129340427Y-81246953D01*
X129230744Y-82140244D01*
X128039689Y-81994001D01*
X128149372Y-81100710D01*
G37*
%TD*%
%TO.C,D13*%
G36*
X123506124Y-137379333D02*
G01*
X124697179Y-137525576D01*
X124587496Y-138418867D01*
X123396441Y-138272624D01*
X123506124Y-137379333D01*
G37*
G36*
X123908292Y-134103931D02*
G01*
X125099347Y-134250174D01*
X124989664Y-135143465D01*
X123798609Y-134997222D01*
X123908292Y-134103931D01*
G37*
%TD*%
%TO.C,D12*%
G36*
X125577902Y-120506048D02*
G01*
X126768957Y-120652291D01*
X126659274Y-121545582D01*
X125468219Y-121399339D01*
X125577902Y-120506048D01*
G37*
G36*
X125980070Y-117230646D02*
G01*
X127171125Y-117376889D01*
X127061442Y-118270180D01*
X125870387Y-118123937D01*
X125980070Y-117230646D01*
G37*
%TD*%
%TO.C,D11*%
G36*
X127649681Y-103632763D02*
G01*
X128840736Y-103779006D01*
X128731053Y-104672297D01*
X127539998Y-104526054D01*
X127649681Y-103632763D01*
G37*
G36*
X128051849Y-100357361D02*
G01*
X129242904Y-100503604D01*
X129133221Y-101396895D01*
X127942166Y-101250652D01*
X128051849Y-100357361D01*
G37*
%TD*%
%TO.C,D10*%
G36*
X129721460Y-86759479D02*
G01*
X130912515Y-86905722D01*
X130802832Y-87799013D01*
X129611777Y-87652770D01*
X129721460Y-86759479D01*
G37*
G36*
X130123628Y-83484077D02*
G01*
X131314683Y-83630320D01*
X131205000Y-84523611D01*
X130013945Y-84377368D01*
X130123628Y-83484077D01*
G37*
%TD*%
%TO.C,D9*%
G36*
X127552159Y-122889415D02*
G01*
X128743214Y-123035658D01*
X128633531Y-123928949D01*
X127442476Y-123782706D01*
X127552159Y-122889415D01*
G37*
G36*
X127954327Y-119614013D02*
G01*
X129145382Y-119760256D01*
X129035699Y-120653547D01*
X127844644Y-120507304D01*
X127954327Y-119614013D01*
G37*
%TD*%
%TO.C,D8*%
G36*
X129623938Y-106016130D02*
G01*
X130814993Y-106162373D01*
X130705310Y-107055664D01*
X129514255Y-106909421D01*
X129623938Y-106016130D01*
G37*
G36*
X130026106Y-102740728D02*
G01*
X131217161Y-102886971D01*
X131107478Y-103780262D01*
X129916423Y-103634019D01*
X130026106Y-102740728D01*
G37*
%TD*%
%TO.C,D7*%
G36*
X131695717Y-89142845D02*
G01*
X132886772Y-89289088D01*
X132777089Y-90182379D01*
X131586034Y-90036136D01*
X131695717Y-89142845D01*
G37*
G36*
X132097885Y-85867443D02*
G01*
X133288940Y-86013686D01*
X133179257Y-86906977D01*
X131988202Y-86760734D01*
X132097885Y-85867443D01*
G37*
%TD*%
%TO.C,D6*%
G36*
X129526415Y-125272781D02*
G01*
X130717470Y-125419024D01*
X130607787Y-126312315D01*
X129416732Y-126166072D01*
X129526415Y-125272781D01*
G37*
G36*
X129928583Y-121997379D02*
G01*
X131119638Y-122143622D01*
X131009955Y-123036913D01*
X129818900Y-122890670D01*
X129928583Y-121997379D01*
G37*
%TD*%
%TO.C,D5*%
G36*
X131598194Y-108399497D02*
G01*
X132789249Y-108545740D01*
X132679566Y-109439031D01*
X131488511Y-109292788D01*
X131598194Y-108399497D01*
G37*
G36*
X132000362Y-105124095D02*
G01*
X133191417Y-105270338D01*
X133081734Y-106163629D01*
X131890679Y-106017386D01*
X132000362Y-105124095D01*
G37*
%TD*%
%TO.C,D4*%
G36*
X133669973Y-91526212D02*
G01*
X134861028Y-91672455D01*
X134751345Y-92565746D01*
X133560290Y-92419503D01*
X133669973Y-91526212D01*
G37*
G36*
X134072141Y-88250810D02*
G01*
X135263196Y-88397053D01*
X135153513Y-89290344D01*
X133962458Y-89144101D01*
X134072141Y-88250810D01*
G37*
%TD*%
%TO.C,D3*%
G36*
X131500672Y-127656148D02*
G01*
X132691727Y-127802391D01*
X132582044Y-128695682D01*
X131390989Y-128549439D01*
X131500672Y-127656148D01*
G37*
G36*
X131902840Y-124380746D02*
G01*
X133093895Y-124526989D01*
X132984212Y-125420280D01*
X131793157Y-125274037D01*
X131902840Y-124380746D01*
G37*
%TD*%
%TO.C,D2*%
G36*
X133572451Y-110782863D02*
G01*
X134763506Y-110929106D01*
X134653823Y-111822397D01*
X133462768Y-111676154D01*
X133572451Y-110782863D01*
G37*
G36*
X133974619Y-107507461D02*
G01*
X135165674Y-107653704D01*
X135055991Y-108546995D01*
X133864936Y-108400752D01*
X133974619Y-107507461D01*
G37*
%TD*%
%TO.C,D1*%
G36*
X135644229Y-93909579D02*
G01*
X136835284Y-94055822D01*
X136725601Y-94949113D01*
X135534546Y-94802870D01*
X135644229Y-93909579D01*
G37*
G36*
X136046397Y-90634177D02*
G01*
X137237452Y-90780420D01*
X137127769Y-91673711D01*
X135936714Y-91527468D01*
X136046397Y-90634177D01*
G37*
%TD*%
%TO.C,C4*%
G36*
G01*
X149506260Y-117687510D02*
X148993760Y-117687510D01*
G75*
G02*
X148775010Y-117468760I0J218750D01*
G01*
X148775010Y-117031260D01*
G75*
G02*
X148993760Y-116812510I218750J0D01*
G01*
X149506260Y-116812510D01*
G75*
G02*
X149725010Y-117031260I0J-218750D01*
G01*
X149725010Y-117468760D01*
G75*
G02*
X149506260Y-117687510I-218750J0D01*
G01*
G37*
G36*
G01*
X149506260Y-119262510D02*
X148993760Y-119262510D01*
G75*
G02*
X148775010Y-119043760I0J218750D01*
G01*
X148775010Y-118606260D01*
G75*
G02*
X148993760Y-118387510I218750J0D01*
G01*
X149506260Y-118387510D01*
G75*
G02*
X149725010Y-118606260I0J-218750D01*
G01*
X149725010Y-119043760D01*
G75*
G02*
X149506260Y-119262510I-218750J0D01*
G01*
G37*
%TD*%
%TO.C,C2*%
G36*
G01*
X152020260Y-108281010D02*
X151507760Y-108281010D01*
G75*
G02*
X151289010Y-108062260I0J218750D01*
G01*
X151289010Y-107624760D01*
G75*
G02*
X151507760Y-107406010I218750J0D01*
G01*
X152020260Y-107406010D01*
G75*
G02*
X152239010Y-107624760I0J-218750D01*
G01*
X152239010Y-108062260D01*
G75*
G02*
X152020260Y-108281010I-218750J0D01*
G01*
G37*
G36*
G01*
X152020260Y-109856010D02*
X151507760Y-109856010D01*
G75*
G02*
X151289010Y-109637260I0J218750D01*
G01*
X151289010Y-109199760D01*
G75*
G02*
X151507760Y-108981010I218750J0D01*
G01*
X152020260Y-108981010D01*
G75*
G02*
X152239010Y-109199760I0J-218750D01*
G01*
X152239010Y-109637260D01*
G75*
G02*
X152020260Y-109856010I-218750J0D01*
G01*
G37*
%TD*%
%TO.C,C1*%
G36*
G01*
X156354260Y-70318010D02*
X155841760Y-70318010D01*
G75*
G02*
X155623010Y-70099260I0J218750D01*
G01*
X155623010Y-69661760D01*
G75*
G02*
X155841760Y-69443010I218750J0D01*
G01*
X156354260Y-69443010D01*
G75*
G02*
X156573010Y-69661760I0J-218750D01*
G01*
X156573010Y-70099260D01*
G75*
G02*
X156354260Y-70318010I-218750J0D01*
G01*
G37*
G36*
G01*
X156354260Y-71893010D02*
X155841760Y-71893010D01*
G75*
G02*
X155623010Y-71674260I0J218750D01*
G01*
X155623010Y-71236760D01*
G75*
G02*
X155841760Y-71018010I218750J0D01*
G01*
X156354260Y-71018010D01*
G75*
G02*
X156573010Y-71236760I0J-218750D01*
G01*
X156573010Y-71674260D01*
G75*
G02*
X156354260Y-71893010I-218750J0D01*
G01*
G37*
%TD*%
D24*
%TO.C,U3*%
X151050010Y-111500010D03*
X152950010Y-111500010D03*
X152950010Y-113700010D03*
X152000010Y-113700010D03*
X151050010Y-113700010D03*
%TD*%
D25*
%TO.C,U2*%
X147545010Y-108601010D03*
X147545010Y-110501010D03*
X145345010Y-110501010D03*
X145345010Y-109551010D03*
X145345010Y-108601010D03*
%TD*%
M02*
