M48
; DRILL file {KiCad (5.1.10-1-10_14)} date Sunday, September 26, 2021 at 08:25:10 PM
; FORMAT={-:-/ absolute / inch / decimal}
; #@! TF.CreationDate,2021-09-26T20:25:10-05:00
; #@! TF.GenerationSoftware,Kicad,Pcbnew,(5.1.10-1-10_14)
; #@! TF.FileFunction,Plated,1,2,PTH
FMAT,2
INCH
T1C0.0118
T2C0.0236
T3C0.0394
T4C0.0472
%
G90
G05
T1
X2.3791Y-3.387
X3.0814Y-3.4829
X3.7827Y-3.5859
X4.4845Y-3.6853
X4.806Y-5.3353
X4.8218Y-5.2063
X4.8837Y-5.4291
X4.8856Y-4.6718
X4.8996Y-5.3001
X4.9083Y-4.5426
X4.9653Y-4.7648
X4.9691Y-4.0067
X4.986Y-4.6364
X4.9899Y-3.8783
X5.043Y-4.8586
X5.0469Y-4.1005
X5.0507Y-3.3424
X5.0598Y-4.7298
X5.0665Y-3.2134
X5.0676Y-3.9721
X5.117Y-4.9554
X5.1246Y-4.1943
X5.1284Y-3.4362
X5.1415Y-4.8241
X5.1419Y-3.3042
X5.1458Y-4.0666
X5.1985Y-5.0463
X5.2023Y-4.2882
X5.2062Y-3.53
X5.2143Y-4.9173
X5.2207Y-3.3994
X5.225Y-4.1623
X5.28Y-4.382
X5.2821Y-3.6252
X5.2959Y-4.253
X5.2997Y-3.4949
X5.3693Y-3.6626
X5.3774Y-3.5887
X5.4539Y-3.4543
X5.4539Y-3.9795
X5.4921Y-3.4543
X5.4921Y-3.9795
X5.5303Y-3.4543
X5.5303Y-3.9795
X5.5685Y-3.4543
X5.5685Y-3.4988
X5.5685Y-3.5421
X5.5685Y-3.5854
X5.5685Y-3.6287
X5.5685Y-3.672
X5.5685Y-3.7154
X5.5685Y-3.7587
X5.5685Y-3.802
X5.5685Y-3.8453
X5.5685Y-3.8886
X5.5685Y-3.9323
X5.6799Y-4.0661
X5.692Y-4.7447
X5.722Y-4.0661
X5.7222Y-4.5265
X5.7655Y-4.0661
X5.7998Y-2.876
X5.8089Y-4.0661
X5.8268Y-4.5866
X5.8366Y-4.7057
X5.8523Y-4.0661
X5.8661Y-4.2323
X5.8917Y-4.7421
X5.895Y-2.9141
X5.8951Y-2.8852
X5.8957Y-4.0661
X5.9272Y-4.5551
X5.9402Y-4.0661
X5.9823Y-4.0661
X6.0061Y-4.3418
X6.0578Y-4.2311
X6.0605Y-3.0047
X6.0693Y-4.0661
X6.1063Y-3.6295
X6.1063Y-3.6724
X6.112Y-4.0661
X6.222Y-3.4543
X6.222Y-3.4988
X6.222Y-3.5421
X6.222Y-3.5874
X6.222Y-3.6283
X6.222Y-3.672
X6.222Y-3.7157
X6.222Y-3.7594
X6.222Y-3.8035
X6.222Y-3.8469
X6.222Y-3.8882
X6.222Y-3.9323
X6.2605Y-3.4543
X6.2605Y-3.9795
X6.299Y-3.4543
X6.299Y-3.9795
X6.3374Y-3.4543
X6.3374Y-3.9795
X6.4135Y-3.5891
X6.4293Y-3.6626
X6.4961Y-3.4946
X6.5019Y-4.2525
X6.5071Y-3.6242
X6.5177Y-4.3815
X6.5658Y-3.4055
X6.5796Y-4.1587
X6.5835Y-4.9168
X6.5848Y-3.5304
X6.5967Y-4.2886
X6.5993Y-5.0458
X6.6439Y-3.3111
X6.6609Y-4.8233
X6.6623Y-4.0585
X6.6625Y-3.4365
X6.6732Y-4.1938
X6.6813Y-4.9553
X6.7269Y-3.2134
X6.7351Y-3.971
X6.7384Y-4.7298
X6.7428Y-3.3424
X6.7532Y-4.1018
X6.7548Y-4.8581
X6.8128Y-3.8772
X6.818Y-4.6352
X6.8313Y-4.0082
X6.8325Y-4.7643
X6.8944Y-4.5415
X6.8982Y-5.2996
X6.9102Y-4.6705
X6.914Y-5.4286
X6.9759Y-5.2058
X6.9918Y-5.3348
X7.3127Y-3.6802
X8.0145Y-3.5808
X8.7165Y-3.4831
X9.4184Y-3.3847
T3
X5.4862Y-5.476
X5.4862Y-5.598
X5.7453Y-4.9386
X5.8453Y-4.9386
X5.8969Y-3.5195
X5.8969Y-3.6195
X5.8969Y-3.7195
X5.8969Y-3.8195
X5.9453Y-4.9386
X6.0453Y-4.9386
X6.3051Y-5.476
X6.3051Y-5.598
T4
X1.4008Y-4.5592
X1.4824Y-3.8949
X1.5639Y-3.2306
X1.5861Y-4.6652
X1.6677Y-4.0009
X1.7492Y-3.3366
X2.1246Y-4.4795
X2.2061Y-3.8152
X2.2877Y-3.1509
X2.3099Y-4.5855
X2.3914Y-3.9212
X2.473Y-3.2569
X2.7464Y-5.2301
X2.8483Y-4.3998
X2.9299Y-3.7354
X2.9317Y-5.3362
X3.0115Y-3.0711
X3.0336Y-4.5058
X3.1152Y-3.8415
X3.1968Y-3.1772
X3.5313Y-4.6522
X3.6129Y-3.9879
X3.6945Y-3.3236
X3.7166Y-4.7582
X3.7982Y-4.0939
X3.8014Y-5.3597
X3.8798Y-3.4296
X3.9868Y-5.4657
X4.2347Y-4.7386
X4.3163Y-4.0743
X4.3978Y-3.41
X4.42Y-4.8446
X4.5016Y-4.1803
X4.5831Y-3.516
X7.0096Y-3.4609
X7.0912Y-4.1252
X7.1727Y-4.7895
X7.2151Y-3.519
X7.2966Y-4.1833
X7.3782Y-4.8476
X7.606Y-5.4107
X7.713Y-3.3746
X7.7946Y-4.0389
X7.8115Y-5.4687
X7.8761Y-4.7032
X7.9184Y-3.4326
X8.0Y-4.097
X8.0816Y-4.7613
X8.396Y-3.1221
X8.4775Y-3.7864
X8.5591Y-4.4507
X8.6014Y-3.1802
X8.6611Y-5.2811
X8.683Y-3.8445
X8.7646Y-4.5088
X8.8665Y-5.3392
X9.1197Y-3.2018
X9.2013Y-3.8662
X9.2829Y-4.5305
X9.3252Y-3.2599
X9.4068Y-3.9242
X9.4883Y-4.5885
X9.8435Y-3.2816
X9.9251Y-3.9459
X10.0066Y-4.6102
X10.049Y-3.3396
X10.1305Y-4.0039
X10.2121Y-4.6682
T2
G00X5.7256Y-2.6185
M15
G01X5.7256Y-2.5949
M16
G05
G00X5.7256Y-2.7929
M15
G01X5.7256Y-2.7496
M16
G05
G00X6.0657Y-2.6185
M15
G01X6.0657Y-2.5949
M16
G05
G00X6.0657Y-2.7929
M15
G01X6.0657Y-2.7496
M16
G05
T0
M30
